<?xml version="1.0" standalone="no"?> <!DOCTYPE svg PUBLIC "-//W3C//DTD SVG 1.0//EN" "http://www.w3.org/TR/2001/REC-SVG-20010904/DTD/svg10.dtd" > <svg xmlns="http://www.w3.org/2000/svg" width="100%" height="100%">
<defs >
<font id="CaslonOldFaceBT-Heavy" horiz-adv-x="909" ><font-face
    font-family="CaslonOldFace Hv "
    units-per-em="2048"
    panose-1="2 3 8 3 7 7 6 2 4 3"
    ascent="1972"
    descent="-483"
    alphabetic="0" />
<missing-glyph horiz-adv-x="1229" d="M102 -362V1444H1126V-362H102ZM217 -248H1012V1329H217V-248Z" />
<glyph unicode=" " glyph-name="space" horiz-adv-x="602" />
<glyph unicode="!" glyph-name="exclam" horiz-adv-x="649" d="M313 479V494Q313 579 300 652T254 807Q245 830 227 875Q150 1066 150 1167Q150 1261 189 1335T324 1489Q420 1407 460 1334T500 1167Q500 1068 425 881Q405 832 395 806Q362 724 349 652T336 494V479H313ZM512
160Q512 81 458 26T326 -29Q247 -29 191 26T135 160Q135 237 191 292T326 348Q402 348 457 293T512 160Z" />
<glyph unicode="&quot;" glyph-name="quotedbl" horiz-adv-x="707" d="M543 852H502L422 1313Q420 1325 419 1334T418 1350Q418 1403 446 1433T522 1464Q571 1464 599 1435T627 1354Q627 1348 626 1339T623 1313L543 852ZM203 852H162L82 1313Q81 1320 81 1327T80
1350Q80 1402 108 1433T182 1464Q230 1464 257 1435T285 1354Q285 1338 285 1330T283 1313L203 852Z" />
<glyph unicode="#" glyph-name="numbersign" horiz-adv-x="1575" d="M705 852L614 600H879L967 852H705ZM711 1464H926L778 1049H1032L1182 1464H1395L1247 1049H1530L1456 850H1178L1090 602H1382L1311 406H1020L872 -10H657L805 406H551L401 -10H186L334 406H45L119
602H406L494 850H190L264 1049H563L711 1464Z" />
<glyph unicode="$" glyph-name="dollar" horiz-adv-x="1204" d="M575 967V1405Q479 1394 420 1333T360 1184Q360 1109 409 1059T575 967ZM653 53Q762 73 821 139T881 309Q881 394 827 456T653 569V53ZM575 -211V-6Q501 3 427 28T281 94Q258 76 242 55T215 8H180L172
473H211Q268 284 358 181T575 55V606Q382 691 286 806T190 1069Q190 1233 293 1339T575 1462V1624H653V1458Q715 1452 779 1428T911 1362L956 1423L977 1413L1001 1063H973Q930 1212 844 1304T654 1407L653 940Q885 848 987 737T1090 469Q1090 276 972 147T653
-8V-211H575Z" />
<glyph unicode="%" glyph-name="percent" horiz-adv-x="1473" d="M1415 360Q1415 186 1328 72T1112 -43Q984 -43 898 71T811 360Q811 534 897 648T1112 762Q1241 762 1328 648T1415 360ZM1112 45Q1175 45 1202 115T1229 358Q1229 531 1202 601T1112 672Q1049 672
1022 602T995 358Q995 186 1022 116T1112 45ZM365 786Q427 786 453 855T479 1100Q479 1274 453 1343T365 1413Q302 1413 275 1343T248 1100Q248 928 275 857T365 786ZM666 1100Q666 925 580 812T365 698Q236 698 149 812T61 1100Q61 1274 148 1388T365 1503Q493
1503 579 1389T666 1100ZM86 -43L1247 1503H1391L227 -43H86Z" />
<glyph unicode="&amp;" glyph-name="ampersand" horiz-adv-x="1696" d="M918 920Q997 976 1035 1042T1073 1190Q1073 1302 1025 1362T889 1423Q813 1423 764 1378T715 1264Q715 1220 741 1165T819 1044L918 920ZM895 178Q864 239 785 440T629 754Q535 735 487
676T438 520Q438 452 456 382T510 244Q547 173 593 138T696 102Q732 102 779 120T895 178ZM932 117Q798 39 702 5T518 -29Q345 -29 228 76T111 336Q111 487 227 602T598 817Q533 904 501 985T469 1145Q469 1295 583 1392T877 1489Q1019 1489 1107 1407T1196 1192Q1196
1102 1141 1026T952 862Q999 810 1041 720T1139 459L1253 616Q1277 651 1287 677T1298 729Q1298 768 1267 791T1184 815V864H1599V815Q1519 810 1461 774T1329 633L1157 393Q1207 256 1258 194T1374 131Q1424 131 1471 170T1581 303L1612 276Q1549 128 1457 56T1239
-16Q1139 -16 1062 17T932 117Z" />
<glyph unicode="&apos;" glyph-name="quotesingle" horiz-adv-x="365" d="M203 852H162L82 1313Q80 1325 79 1334T78 1350Q78 1403 106 1433T182 1464Q230 1464 257 1435T285 1354Q285 1338 285 1330T283 1313L203 852Z" />
<glyph unicode="(" glyph-name="parenleft" d="M758 -346L748 -379Q478 -259 342 -24T205 555Q205 899 341 1134T748 1489L758 1456Q622 1344 548 1110T473 555Q473 235 547 1T758 -346Z" />
<glyph unicode=")" glyph-name="parenright" d="M156 -346Q292 -234 367 1T442 555Q442 874 367 1109T156 1456L166 1489Q435 1369 572 1134T709 555Q709 211 572 -24T166 -379L156 -346Z" />
<glyph unicode="*" glyph-name="asterisk" horiz-adv-x="782" d="M416 1141Q454 1120 513 1116T584 1108Q624 1095 648 1065T688 973L679 971Q627 958 614 958Q546 958 491 1030T406 1124L399 1120Q402 1079 430 1019T459 934Q459 898 443 867T391 801Q355 835
339 867T322 934Q322 959 351 1020T381 1120L375 1126Q343 1104 290 1033T168 961Q157 961 137 964T92 973Q109 1035 133 1066T197 1110Q206 1113 265 1117T365 1143L367 1149Q331 1169 272 1173T198 1182Q158 1196 135 1227T94 1319Q121 1325 140 1328T170 1331Q238
1331 291 1259T377 1165L383 1170Q382 1209 353 1270T324 1358Q324 1379 328 1395T344 1430Q353 1445 365 1460T391 1489Q427 1456 444 1424T461 1356Q461 1333 433 1273T401 1169L408 1165Q439 1187 492 1258T610 1329Q625 1329 645 1326T690 1316Q678 1260 652
1227T586 1180Q575 1176 515 1172T416 1147V1141Z" />
<glyph unicode="+" glyph-name="plus" horiz-adv-x="1706" d="M752 1221H954V711H1452V512H954V0H752V512H254V711H752V1221Z" />
<glyph unicode="," glyph-name="comma" horiz-adv-x="602" d="M135 -199H147Q243 -199 298 -151T354 -19Q335 -24 318 -26T287 -29Q208 -29 155 24T102 158Q102 237 159 291T299 346Q393 346 450 273T508 80Q508 -71 409 -161T141 -252H135V-199Z" />
<glyph unicode="-" glyph-name="hyphen" horiz-adv-x="748" d="M633 567V315H115V567H633Z" />
<glyph unicode="." glyph-name="period" horiz-adv-x="602" d="M489 160Q489 81 434 26T301 -29Q223 -29 168 26T113 160Q113 237 168 292T301 348Q378 348 433 293T489 160Z" />
<glyph unicode="/" glyph-name="slash" horiz-adv-x="993" d="M23 -190H-109L860 1489H993L23 -190Z" />
<glyph unicode="0" glyph-name="zero" horiz-adv-x="1204" d="M602 37Q710 37 757 188T805 690Q805 1110 760 1266T602 1423Q491 1423 444 1268T397 729Q397 346 444 192T602 37ZM1130 729Q1130 558 1088 411T967 158Q894 61 800 9T602 -43Q499 -43 405 9T238
158Q158 264 116 411T74 729Q74 900 116 1048T238 1303Q310 1399 404 1451T602 1503Q705 1503 799 1451T967 1303Q1046 1196 1088 1049T1130 729Z" />
<glyph unicode="1" glyph-name="one" horiz-adv-x="1204" d="M201 0V61L315 63Q396 65 429 108T463 268V1194Q463 1244 415 1263T209 1289V1337Q357 1360 497 1398T772 1491V268Q772 153 806 109T922 63L1036 61V0H201Z" />
<glyph unicode="2" glyph-name="two" horiz-adv-x="1204" d="M881 317Q957 317 1002 349T1073 455L1116 444L938 0H70V47Q115 152 194 257T383 461Q419 493 484 550Q615 665 649 707Q718 787 751 862T784 1014Q784 1137 712 1210T520 1284Q415 1284 306 1225T96
1055L57 1081Q170 1289 321 1396T651 1503Q852 1503 978 1384T1104 1077Q1104 944 1034 834T823 635Q762 596 647 530Q417 399 342 317H881Z" />
<glyph unicode="3" glyph-name="three" horiz-adv-x="1204" d="M336 725V760Q518 797 618 881T719 1079Q719 1168 659 1225T504 1282Q422 1282 358 1250T233 1145L203 1165Q258 1328 366 1415T623 1503Q776 1503 868 1418T961 1192Q961 1083 903 1004T733 881Q919
827 1018 709T1118 422Q1118 220 958 89T547 -43Q323 -43 190 31T57 229Q57 299 102 345T215 391Q287 391 331 347T375 233Q375 223 373 199T371 160Q371 105 423 72T561 39Q688 39 758 109T829 307Q829 472 695 586T336 725Z" />
<glyph unicode="4" glyph-name="four" horiz-adv-x="1204" d="M618 573V1118L180 573H618ZM618 0V436H94V573L825 1503H920V573H1139V436H920V0H618Z" />
<glyph unicode="5" glyph-name="five" horiz-adv-x="1204" d="M143 672L207 1460H883Q940 1460 985 1477T1065 1530L1090 1520L940 1165H254L238 961Q303 969 365 973T487 977Q769 977 946 831T1124 457Q1124 235 960 97T526 -41Q329 -41 203 34T76 223Q76 297
123 341T250 385Q319 385 359 338T410 198Q419 112 462 77T596 41Q723 41 802 116T881 313Q881 493 752 589T381 686Q342 686 291 683T143 672Z" />
<glyph unicode="6" glyph-name="six" horiz-adv-x="1204" d="M440 840Q507 883 575 904T715 926Q905 926 1028 798T1151 469Q1151 365 1116 279T1006 115Q929 35 837 -4T635 -43Q393 -43 237 125T80 557Q80 912 316 1157T989 1503L1006 1458Q783 1376 637 1216T440
840ZM426 758Q418 684 414 624T410 510Q410 261 466 147T643 33Q750 33 800 122T850 406Q850 622 795 733T633 844Q587 844 536 823T426 758Z" />
<glyph unicode="7" glyph-name="seven" horiz-adv-x="1204" d="M971 1163H309Q252 1163 207 1146T127 1094L102 1104L236 1460H1145V1360Q954 991 862 658T768 0H410Q426 271 563 557T971 1163Z" />
<glyph unicode="8" glyph-name="eight" horiz-adv-x="1204" d="M758 901Q830 944 866 1011T903 1169Q903 1294 827 1368T623 1442Q510 1442 439 1384T367 1237Q367 1186 399 1137T485 1057L758 901ZM399 700Q324 640 286 559T248 377Q248 221 338 129T582 37Q716
37 808 109T901 283Q901 341 864 388T721 500L399 700ZM332 739Q226 821 173 913T119 1106Q119 1282 254 1392T608 1503Q819 1503 940 1419T1061 1190Q1061 1088 1002 1008T825 866Q996 767 1070 663T1145 420Q1145 227 990 92T608 -43Q363 -43 216 66T68 354Q68
468 133 563T332 739Z" />
<glyph unicode="9" glyph-name="nine" horiz-adv-x="1204" d="M766 618Q699 575 632 554T494 532Q303 532 179 661T55 991Q55 1094 90 1180T201 1343Q277 1423 370 1463T573 1503Q815 1503 971 1335T1128 903Q1128 541 889 299T195 -45L178 2Q408 83 560 242T766
618ZM780 702Q791 794 795 849T799 950Q799 1197 742 1311T563 1425Q456 1425 406 1336T356 1053Q356 836 411 726T573 616Q619 616 670 637T780 702Z" />
<glyph unicode=":" glyph-name="colon" horiz-adv-x="649" d="M512 158Q512 79 458 24T326 -31Q247 -31 191 24T135 158Q135 235 191 290T326 346Q402 346 457 291T512 158ZM512 711Q512 632 458 577T326 522Q247 522 191 577T135 711Q135 788 191 843T326 899Q402
899 457 844T512 711Z" />
<glyph unicode=";" glyph-name="semicolon" horiz-adv-x="649" d="M158 -199H170Q265 -199 320 -151T377 -19Q357 -24 341 -26T309 -29Q231 -29 179 24T127 158Q127 238 183 292T322 346Q415 346 472 273T530 80Q530 -71 431 -161T164 -252H158V-199ZM504 711Q504
632 449 577T315 522Q237 522 182 577T127 711Q127 788 182 843T315 899Q392 899 448 844T504 711Z" />
<glyph unicode="&lt;" glyph-name="less" horiz-adv-x="1706" d="M1442 1194V975L549 610L1442 246V27L264 512V711L1442 1194Z" />
<glyph unicode="=" glyph-name="equal" horiz-adv-x="1706" d="M254 496H1452V297H254V496ZM254 926H1452V727H254V926Z" />
<glyph unicode="&gt;" glyph-name="greater" horiz-adv-x="1706" d="M264 1194L1442 711V512L264 27V246L1159 610L264 975V1194Z" />
<glyph unicode="?" glyph-name="question" horiz-adv-x="1028" d="M342 461Q334 576 319 680T283 879Q297 878 323 877Q396 875 420 874Q641 874 766 955T891 1178Q891 1270 820 1331T639 1393Q592 1393 559 1375T477 1292Q423 1220 378 1192T279 1163Q216 1163
177 1198T137 1290Q137 1385 229 1438T485 1491Q718 1491 852 1381T987 1079Q987 897 832 775T414 633L397 461H342ZM569 160Q569 81 514 26T381 -29Q303 -29 248 26T193 160Q193 237 248 292T381 348Q458 348 513 293T569 160Z" />
<glyph unicode="@" glyph-name="at" horiz-adv-x="2019" d="M1176 319Q1114 219 1042 171T881 123Q739 123 659 214T578 465Q578 579 628 686T772 883Q841 947 920 980T1081 1014Q1177 1014 1231 969T1303 831L1352 995H1542L1368 377L1366 370Q1352 312 1352
283Q1352 236 1372 209T1427 182Q1460 182 1512 207T1610 270Q1713 358 1768 487T1823 772Q1823 1047 1635 1218T1145 1389Q1007 1389 883 1351T655 1239Q482 1118 389 931T295 514Q295 179 505 -18T1071 -215Q1237 -215 1390 -165T1698 -8L1737 -59Q1586 -172
1419 -228T1071 -285Q884 -285 724 -239T446 -106Q295 6 214 171T133 535Q133 690 185 833T338 1098Q483 1272 684 1365T1120 1458Q1469 1458 1678 1269T1888 766Q1888 605 1829 467T1659 227Q1600 174 1533 147T1395 119Q1297 119 1240 171T1176 319ZM1118 948Q1056
948 1006 904T905 760Q848 646 818 545T788 362Q788 283 822 237T915 190Q979 190 1039 252T1155 434Q1195 526 1218 619T1241 782Q1241 862 1209 905T1118 948Z" />
<glyph unicode="A" glyph-name="A" horiz-adv-x="1343" d="M293 492H745L524 1040L293 492ZM-100 0V57Q-23 67 26 113T150 328L467 1057Q470 1063 471 1069T473 1081Q473 1089 469 1097T455 1114L412 1155Q479 1230 534 1313T631 1489H696L1237 219Q1277 126 1315
93T1413 59H1419V0H717V59L781 66Q828 70 851 90T874 150Q874 162 868 184T844 252L774 426H264L238 338Q232 322 229 300T225 254Q225 166 274 115T412 57V0H-100Z" />
<glyph unicode="B" glyph-name="B" horiz-adv-x="1346" d="M543 815H606Q746 815 818 891T891 1114Q891 1255 830 1330T653 1405Q594 1405 569 1384T543 1313V815ZM543 741V174Q543 116 570 92T664 68Q793 68 860 152T928 399Q928 568 849 654T614 741H543ZM596
1460H631Q812 1460 895 1447T1038 1403Q1127 1359 1176 1283T1225 1112Q1225 985 1134 905T854 786Q1066 750 1174 654T1282 403Q1282 316 1247 242T1145 115Q1066 52 959 26T592 0H567H33V59L75 61Q161 67 189 89T217 168V1300Q217 1357 189 1379T76 1407L33 1411V1460H596Z"
/>
<glyph unicode="C" glyph-name="C" horiz-adv-x="1526" d="M1458 -10H1411L1386 41Q1386 41 1386 42Q1372 74 1348 74Q1337 74 1289 56Q1059 -29 836 -29Q687 -29 552 22T317 168Q203 276 143 420T82 729Q82 894 142 1039T317 1292Q416 1386 551 1437T836 1489Q937
1489 1032 1470T1227 1411Q1242 1405 1268 1393Q1314 1372 1333 1372Q1350 1372 1365 1391T1397 1450H1432V977H1384Q1274 1192 1138 1307T858 1423Q672 1423 566 1239T459 729Q459 386 559 212T858 37Q1006 37 1142 146T1413 481H1458V-10Z" />
<glyph unicode="D" glyph-name="D" horiz-adv-x="1673" d="M555 1300V168Q555 109 587 85T696 61H756Q979 61 1096 237T1214 745Q1214 938 1175 1091T1069 1313Q1024 1361 953 1384T778 1407H696Q619 1407 587 1383T555 1300ZM33 0V59L75 61Q161 67 189 89T217
168V1300Q217 1357 189 1379T76 1407L33 1411V1460H727Q943 1460 1050 1440T1243 1372Q1413 1279 1502 1115T1591 731Q1591 530 1503 368T1247 98Q1164 45 1058 23T717 0H33Z" />
<glyph unicode="E" glyph-name="E" horiz-adv-x="1419" d="M1331 0H33V59L75 61Q161 67 189 89T217 168V1300Q217 1358 191 1379T75 1407H33V1460H1196L1323 1112L1294 1102L1217 1192Q1124 1300 1033 1353T852 1407H696Q619 1407 587 1383T555 1300V782H684Q795
782 873 865T973 1090H1014V430H973Q952 564 872 646T684 729H555V168Q555 110 587 86T696 61H846Q996 61 1106 129T1331 362L1384 428L1411 416L1331 0Z" />
<glyph unicode="F" glyph-name="F" horiz-adv-x="1278" d="M750 0H33V59L75 61Q161 67 189 89T217 168V1300Q217 1358 191 1379T76 1407L33 1411V1460H1196L1323 1112L1294 1102L1210 1192Q1112 1299 1014 1353T819 1407H696Q619 1407 587 1383T555 1300V782H684Q795
782 873 865T973 1090H1014V422H973Q952 561 873 645T684 729H555V168Q555 110 583 88T697 61L750 59V0Z" />
<glyph unicode="G" glyph-name="G" horiz-adv-x="1722" d="M1522 -10H1477L1450 41Q1440 60 1431 66T1405 72Q1388 72 1323 49Q1097 -31 899 -31Q757 -31 642 -3T432 82Q267 181 175 352T82 729Q82 894 142 1039T317 1292Q421 1389 559 1439T864 1489Q965 1489
1061 1470T1262 1411Q1277 1405 1304 1394Q1360 1370 1380 1370Q1397 1370 1412 1387T1448 1450H1479V977H1434Q1311 1197 1167 1310T866 1423Q674 1423 567 1241T459 729Q459 379 561 206T872 33Q950 33 1016 58T1120 129Q1147 159 1158 195T1169 315V485Q1169
561 1148 580T1051 602L958 604V664H1675V604L1615 602Q1563 599 1543 574T1522 471V-10Z" />
<glyph unicode="H" glyph-name="H" horiz-adv-x="1706" d="M33 0V59L75 61Q161 67 189 89T217 168V1300Q217 1357 189 1379T76 1407L33 1411V1460H748V1411L696 1407Q613 1404 584 1382T555 1300V825H1151V1300Q1151 1359 1122 1381T1010 1407L961 1411V1460H1673V1411L1630
1407Q1545 1402 1517 1380T1489 1300V168Q1489 111 1517 89T1631 61L1673 59V0H950V59L1009 61Q1092 65 1121 87T1151 168V750H555V168Q555 110 584 88T697 61L756 59V0H33Z" />
<glyph unicode="I" glyph-name="I" horiz-adv-x="772" d="M739 1460V1411L696 1407Q612 1402 584 1380T555 1300V168Q555 111 583 89T697 61L739 59V0H33V59L75 61Q161 67 189 89T217 168V1300Q217 1357 189 1379T76 1407L33 1411V1460H739Z" />
<glyph unicode="J" glyph-name="J" horiz-adv-x="1020" d="M999 1460V1411L956 1407Q871 1402 842 1380T813 1300V524Q813 276 684 125T342 -27Q182 -27 77 48T-29 233Q-29 305 20 350T147 395Q212 395 254 359T309 258Q315 230 316 186T319 132Q326 90 343 70T389
49Q439 49 458 83T477 225V1300Q477 1359 448 1381T336 1407L276 1411V1460H999Z" />
<glyph unicode="K" glyph-name="K" horiz-adv-x="1432" d="M33 0V59L75 61Q161 67 189 89T217 168V1300Q217 1357 189 1379T76 1407L33 1411V1460H748V1411L696 1407Q613 1404 584 1382T555 1300V717L958 1139Q1001 1183 1021 1221T1042 1294Q1042 1350 1006 1377T893
1407V1460H1440V1407H1425Q1347 1407 1284 1374T1149 1262L909 997L1315 201Q1354 123 1398 91T1507 59H1520V0H1053L672 748L555 621V168Q555 111 584 88T697 61L756 59V0H33Z" />
<glyph unicode="L" glyph-name="L" horiz-adv-x="1397" d="M1331 0H33V61H75Q161 67 189 89T217 168V1300Q217 1358 191 1379T76 1407L33 1411V1460H758V1411L696 1407Q606 1403 581 1382T555 1300V178Q555 111 585 86T696 61H846Q996 61 1106 129T1331 362L1384
440L1411 422L1331 0Z" />
<glyph unicode="M" glyph-name="M" horiz-adv-x="1931" d="M281 1245V350Q281 215 328 139T463 59V0H31V59Q120 69 165 142T211 350V1337Q195 1374 157 1390T47 1407H31V1460H551L967 444L1389 1460H1901V1411L1855 1407Q1771 1402 1743 1380T1714 1300V168Q1714
111 1742 89T1856 61L1901 59V0H1176V59L1234 61Q1318 65 1348 87T1378 168V1270L854 0H784L281 1245Z" />
<glyph unicode="N" glyph-name="N" horiz-adv-x="1616" d="M1354 475V1114Q1354 1252 1295 1326T1120 1407V1460H1602V1407Q1508 1395 1464 1325T1419 1118V-27H1348L279 1249V346Q279 205 336 134T512 57V0H31V57Q123 70 167 139T211 346V1247Q211 1329 171 1368T45
1407H31V1460H526L1354 475Z" />
<glyph unicode="O" glyph-name="O" horiz-adv-x="1673" d="M1591 729Q1591 564 1531 419T1356 168Q1256 74 1120 23T836 -29Q687 -29 553 22T317 168Q203 276 143 420T82 729Q82 894 142 1039T317 1292Q418 1387 552 1438T836 1489Q986 1489 1121 1438T1356 1292Q1470
1184 1530 1039T1591 729ZM836 37Q1015 37 1113 218T1212 729Q1212 1079 1119 1251T836 1423Q654 1423 557 1239T459 711Q459 377 554 207T836 37Z" />
<glyph unicode="P" glyph-name="P" horiz-adv-x="1294" d="M555 741H624Q788 743 862 819T936 1063Q936 1220 866 1312T676 1405Q612 1405 584 1381T555 1300V741ZM33 0V59L75 61Q161 67 189 89T217 168V1300Q217 1357 189 1379T76 1407L33 1411V1460H666Q847
1460 928 1445T1073 1395Q1165 1343 1215 1255T1266 1057Q1266 879 1128 779T743 678H555V168Q555 110 583 88T697 61L756 59V0H33Z" />
<glyph unicode="Q" glyph-name="Q" horiz-adv-x="1673" d="M647 -6Q386 60 234 258T82 729Q82 894 142 1039T317 1292Q418 1387 552 1438T836 1489Q985 1489 1120 1438T1356 1292Q1470 1184 1530 1039T1591 729Q1591 454 1435 255T1012 -8Q1013 -106 1064 -157T1214
-209Q1258 -209 1311 -197T1432 -158L1446 -215Q1357 -249 1263 -266T1061 -283Q849 -283 748 -218T647 -14V-6ZM836 37Q1015 37 1113 218T1212 729Q1212 1079 1119 1251T836 1423Q654 1423 557 1239T459 711Q459 377 554 207T836 37Z" />
<glyph unicode="R" glyph-name="R" horiz-adv-x="1413" d="M545 741H612Q766 741 838 819T911 1063Q911 1221 844 1313T662 1405Q599 1405 572 1381T545 1300V741ZM631 1460H664Q843 1460 925 1446T1069 1399Q1160 1351 1211 1268T1262 1085Q1262 948 1165 859T879
735Q942 730 987 701T1083 596L1391 133Q1420 86 1441 73T1495 59H1507V0H1073L766 549Q722 628 689 653T596 678H545V168Q545 110 572 88T687 61L737 59V0H33V59L75 61Q161 67 189 89T217 168V1300Q217 1357 189 1379T76 1407L33 1411V1460H631Z" />
<glyph unicode="S" glyph-name="S" horiz-adv-x="1266" d="M123 39L143 514H199Q305 280 428 159T684 37Q783 37 843 100T903 268Q903 476 538 605Q535 606 535 606Q305 687 209 787T113 1040Q113 1241 242 1364T584 1487Q704 1487 831 1435T967 1382Q982 1382
996 1394T1026 1434H1059L1069 981H1028Q960 1193 843 1310T584 1427Q488 1427 431 1375T373 1235Q373 1132 434 1070T678 946Q693 941 721 932Q985 845 1067 752Q1122 689 1151 612T1180 449Q1180 247 1031 107T666 -33Q522 -33 375 24T223 82Q208 82 193 71T162
39H123Z" />
<glyph unicode="T" glyph-name="T" horiz-adv-x="1475" d="M569 1354Q569 1387 555 1398T500 1409Q396 1409 280 1332T45 1106H0L90 1495L119 1511L143 1485Q157 1471 171 1466T211 1460H1266Q1290 1460 1303 1465T1331 1485L1356 1511L1384 1495L1475 1106H1432Q1313
1254 1197 1331T977 1409Q937 1409 922 1398T907 1354V168Q907 109 935 87T1049 61L1112 59V0H365V59L428 61Q514 65 541 87T569 168V1354Z" />
<glyph unicode="U" glyph-name="U" horiz-adv-x="1657" d="M209 1300Q209 1357 181 1379T68 1407L23 1411V1460H737V1411L686 1407Q603 1404 574 1382T545 1300V463Q545 288 664 178T971 68Q1071 68 1165 113T1321 238Q1358 286 1374 349T1391 516V1110Q1391 1260
1336 1330T1160 1405L1159 1460H1638V1405Q1546 1393 1502 1322T1458 1114V553Q1458 410 1445 345T1401 229Q1323 104 1178 38T836 -29Q542 -29 376 103T209 471V1300Z" />
<glyph unicode="V" glyph-name="V" horiz-adv-x="1343" d="M1448 1460V1403Q1372 1395 1323 1348T1198 1130L698 -29H674L111 1241Q85 1297 67 1327T31 1370Q10 1386 -15 1393T-72 1401V1460H647V1401L553 1395Q509 1392 485 1371T461 1311Q461 1296 469 1269T492
1208L825 449L1090 1071V1073Q1124 1154 1124 1208Q1124 1297 1074 1349T936 1403V1460H1448Z" />
<glyph unicode="W" glyph-name="W" horiz-adv-x="1894" d="M1673 1071Q1688 1109 1696 1149T1704 1223Q1704 1303 1661 1352T1545 1403L1544 1460H1972V1403Q1907 1394 1865 1345T1761 1130L1329 -29H1307L958 897L604 -29H582L104 1241Q72 1329 35 1365T-59 1401H-70V1460H565V1401L521
1397Q486 1394 464 1370T442 1311Q442 1287 469 1214Q470 1211 471 1208L739 489L924 983L831 1241Q802 1326 764 1363T668 1401H657V1460H1339V1401L1254 1395Q1208 1391 1186 1370T1163 1311Q1163 1287 1190 1213Q1191 1211 1192 1208L1462 496L1673 1071Z" />
<glyph unicode="X" glyph-name="X" horiz-adv-x="1331" d="M760 895L993 1174Q1025 1211 1038 1238T1051 1292Q1051 1343 1016 1368T910 1397L909 1460H1411V1397Q1338 1395 1259 1343T1092 1186L795 834L1214 172Q1256 105 1294 80T1389 55H1395V0H664V55L718
57Q770 59 794 73T819 117Q819 133 811 155T788 201L563 557L330 287Q298 249 284 221T270 166Q270 117 305 92T414 61V0H-88V61Q-16 63 61 114T231 274L528 621L109 1288Q68 1353 30 1378T-63 1403H-72V1460H659V1403L605 1401Q546 1399 525 1386T504 1339Q504
1323 511 1304T535 1260L760 895Z" />
<glyph unicode="Y" glyph-name="Y" horiz-adv-x="1268" d="M823 168Q823 110 853 88T967 61L1024 59V0H281V59L339 61Q423 65 453 87T483 168V711L55 1323Q27 1362 -4 1380T-84 1403V1460H641V1403L562 1399Q521 1397 501 1385T481 1350Q481 1341 483 1333T494
1310L803 829L1063 1212Q1079 1235 1087 1260T1096 1307Q1096 1354 1066 1377T973 1403V1460H1386V1403Q1320 1395 1274 1364T1171 1253L823 739V168Z" />
<glyph unicode="Z" glyph-name="Z" horiz-adv-x="1372" d="M1298 1460L1323 1417L426 61H643Q800 61 925 118T1245 352L1325 424L1360 395L1206 0H43L18 43L913 1399H686Q533 1399 405 1336T106 1110L51 1057L14 1083L182 1460H1298Z" />
<glyph unicode="[" glyph-name="bracketleft" d="M266 1460H713V1401H590Q533 1401 518 1390T502 1323V1313V-205Q502 -261 517 -272T590 -283H713V-342H266V1460Z" />
<glyph unicode="\" glyph-name="backslash" horiz-adv-x="993" d="M969 -190L0 1489H131L1102 -190H969Z" />
<glyph unicode="]" glyph-name="bracketright" d="M643 -342H199V-283H322Q378 -283 394 -272T410 -205V-195V1323Q410 1379 394 1390T322 1401H199V1460H643V-342Z" />
<glyph unicode="^" glyph-name="asciicircum" horiz-adv-x="2048" d="M905 1462H1141L1632 897H1520L1022 1270L524 897H412L905 1462Z" />
<glyph unicode="_" glyph-name="underscore" horiz-adv-x="1024" d="M0 -279H1024V-483H0V-279Z" />
<glyph unicode="`" glyph-name="grave" horiz-adv-x="1024" d="M688 1022H614L313 1204Q264 1235 247 1256T229 1305Q229 1337 251 1359T305 1382Q329 1382 357 1366T412 1321L688 1022Z" />
<glyph unicode="a" glyph-name="a" horiz-adv-x="1006" d="M598 190V471L504 434Q406 396 355 344T303 231Q303 180 332 150T410 119Q456 119 503 137T598 190ZM606 112Q481 35 404 3T266 -29Q181 -29 125 24T68 160Q68 249 146 317T434 471L598 539V723Q598 781
575 810T506 840Q433 840 376 802T319 711Q319 700 324 669T330 618Q330 549 290 504T186 459Q129 459 98 489T66 575Q66 621 97 668T193 764Q288 836 388 871T596 907Q749 907 807 850T866 618V158Q866 117 875 103T907 88Q930 88 955 98T1008 131L1026 84Q963
33 898 8T768 -18Q690 -18 650 14T606 112Z" />
<glyph unicode="b" glyph-name="b" horiz-adv-x="1143" d="M412 715V245Q413 159 468 102T606 45Q687 45 730 126T774 360Q774 568 720 676T561 784Q520 784 480 765T412 715ZM135 1268Q135 1300 129 1308T100 1325L27 1354V1397Q102 1404 188 1427T379 1489H412V801Q491
857 558 883T688 909Q859 909 961 798T1063 500Q1063 384 1018 280T887 94Q823 33 748 2T590 -29Q494 -29 383 20T246 70Q218 70 201 53T174 0H135V1268Z" />
<glyph unicode="c" glyph-name="c" horiz-adv-x="997" d="M958 301Q914 145 800 56T528 -33Q332 -33 199 100T66 428Q66 632 214 770T582 909Q737 909 842 828T948 631Q948 560 912 522T809 483Q741 483 699 527T657 645Q657 673 671 715T686 774Q686 809 664
828T602 848Q491 848 426 767T360 545Q360 370 441 265T655 160Q736 160 802 199T924 317L958 301Z" />
<glyph unicode="d" glyph-name="d" horiz-adv-x="1139" d="M713 90Q642 29 571 -1T422 -31Q264 -31 167 85T70 393Q70 616 201 762T524 909Q570 909 616 893T713 842V1268Q712 1301 706 1309T676 1325L594 1354V1397Q670 1405 757 1427T956 1489H991V193Q991 161
998 152T1026 135L1100 106V63Q1023 56 936 33T748 -31H719L713 90ZM713 176V641Q702 731 651 787T530 844Q442 844 397 764T352 528Q352 323 406 217T563 111Q605 111 645 128T713 176Z" />
<glyph unicode="e" glyph-name="e" horiz-adv-x="1042" d="M350 504V475Q350 328 431 242T651 156Q736 156 813 197T977 332L1008 295Q934 134 818 53T547 -29Q336 -29 201 103T66 442Q66 638 208 773T559 909Q745 909 862 800T991 504H350ZM348 574L707 573Q707
580 708 591T709 608Q709 721 664 784T541 848Q450 848 400 777T348 574Z" />
<glyph unicode="f" glyph-name="f" horiz-adv-x="647" d="M39 0V61L77 63Q119 67 135 87T152 154V786H27L63 883H151Q153 991 197 1100T328 1315Q398 1402 476 1445T639 1489Q731 1489 790 1437T850 1305Q850 1251 818 1220T729 1188Q681 1188 647 1211T594 1282Q586
1301 579 1339Q567 1405 528 1405Q479 1405 457 1338T434 1116V883H651L614 786H434V154Q434 106 451 86T507 64L575 61V0H39Z" />
<glyph unicode="g" glyph-name="g" horiz-adv-x="934" d="M192 -31Q164 -55 150 -80T135 -131Q135 -202 207 -237T422 -272Q580 -272 670 -234T760 -131Q760 -51 434 -41Q284 -36 192 -31ZM463 399Q524 399 548 442T573 600Q573 754 550 797T463 840Q400 840 376
797T352 621Q352 487 376 443T463 399ZM350 340Q211 377 143 448T74 627Q74 750 178 826T464 909Q519 1070 578 1137T725 1204Q796 1204 834 1170T872 1073Q872 1019 842 986T762 952Q733 952 684 970T612 989Q581 989 562 967T535 901Q690 888 777 819T864 641Q864
538 807 471T629 365Q563 343 456 317Q315 284 315 248Q316 214 440 211Q444 211 446 211L581 209Q763 206 848 145T934 -43Q934 -191 802 -266T410 -342Q231 -342 137 -294T43 -156Q43 -116 64 -83T131 -18Q88 -3 66 27T43 98Q43 160 90 205T293 315L350 340Z"
/>
<glyph unicode="h" glyph-name="h" horiz-adv-x="1171" d="M41 0V61L75 63Q116 66 133 85T150 154V1268Q149 1300 142 1309T115 1325L41 1354V1397Q113 1403 194 1424T393 1489H428V760Q506 832 586 867T752 903Q825 903 889 877T989 807Q1015 777 1025 739T1036
625V571V154Q1036 105 1052 86T1111 63L1145 61V0H639V61L675 63Q717 66 733 85T750 154V621Q750 702 721 733T618 764Q563 764 513 742T428 678V154Q428 104 443 86T499 64L537 61V0H41Z" />
<glyph unicode="i" glyph-name="i" horiz-adv-x="578" d="M436 905V154Q436 105 452 86T509 64L545 61V0H41V61L75 63Q116 66 133 85T150 154V684Q149 717 143 725T115 741L41 770V813Q113 819 194 840T393 905H436ZM430 1286Q430 1220 383 1173T270 1126Q205
1126 158 1173T111 1286Q111 1352 158 1399T270 1446Q336 1446 383 1399T430 1286Z" />
<glyph unicode="j" glyph-name="j" horiz-adv-x="547" d="M420 1286Q420 1220 373 1173T260 1126Q194 1126 147 1173T100 1286Q100 1352 147 1399T260 1446Q326 1446 373 1399T420 1286ZM16 813Q90 819 180 842T377 905H414V33Q414 -117 316 -229T88 -342Q9 -342
-37 -303T-84 -199Q-84 -151 -54 -121T23 -90Q65 -90 92 -117T119 -186Q119 -198 114 -219T109 -250Q109 -264 115 -271T133 -279Q152 -279 163 -259T174 -203Q174 -189 158 -96T141 84V684Q141 717 134 725T102 741L16 770V813Z" />
<glyph unicode="k" glyph-name="k" horiz-adv-x="1085" d="M420 1489V496L610 637Q658 672 676 697T694 752Q694 786 673 803T602 824V883H1051V823Q975 823 919 802T797 723L733 670L989 147Q1014 97 1037 81T1102 61V0H629V61L668 72Q680 75 688 87T696 113Q696
121 694 129T688 143L516 487L420 410V154Q420 105 436 86T494 63L530 61V0H33V61L69 63Q111 67 127 86T143 154V1268Q143 1300 136 1309T108 1325L33 1354V1397Q108 1404 194 1427T385 1489H420Z" />
<glyph unicode="l" glyph-name="l" horiz-adv-x="584" d="M436 1489V154Q436 105 452 86T509 64L547 61V0H41V61L75 63Q116 66 133 85T150 154V1268Q149 1300 142 1309T115 1325L41 1354V1397Q113 1403 194 1424T393 1489H436Z" />
<glyph unicode="m" glyph-name="m" horiz-adv-x="1767" d="M641 0V61L677 63Q720 67 736 85T752 154V621Q752 703 723 733T621 764Q564 764 512 741T428 678V154Q428 104 444 85T501 64L537 61V0H41V61L75 63Q116 66 133 85T150 154V684Q149 717 143 725T115 741L41
770V813Q116 820 201 842T393 905H428V760Q506 832 586 867T750 903Q845 903 917 864T1016 760Q1098 834 1179 868T1354 903Q1422 903 1486 877T1587 807Q1614 776 1625 736T1636 610V571V154Q1636 104 1651 86T1709 63L1745 61V0H1245V61L1283 64Q1324 67 1340
86T1356 154V621Q1356 703 1328 733T1227 764Q1174 764 1127 745T1034 684V154Q1034 105 1050 86T1107 64L1143 61V0H641Z" />
<glyph unicode="n" glyph-name="n" horiz-adv-x="1171" d="M41 0V61L75 63Q116 66 133 85T150 154V684Q149 717 143 725T115 741L41 770V813Q113 819 194 840T393 905H428V760Q506 832 586 867T752 903Q825 903 889 877T989 807Q1015 777 1025 739T1036 625V571V154Q1036
105 1052 86T1111 63L1145 61V0H639V61L675 63Q717 66 733 85T750 154V621Q750 702 721 733T618 764Q563 764 513 742T428 678V154Q428 104 443 86T499 64L537 61V0H41Z" />
<glyph unicode="o" glyph-name="o" horiz-adv-x="1161" d="M66 440Q66 646 210 777T582 909Q808 909 952 778T1096 440Q1096 234 952 103T582 -29Q355 -29 211 102T66 440ZM582 47Q685 47 739 147T793 440Q793 629 738 731T582 834Q479 834 425 733T371 440Q371
252 426 150T582 47Z" />
<glyph unicode="p" glyph-name="p" horiz-adv-x="1147" d="M422 715V245Q431 156 484 101T616 45Q698 45 741 125T784 358Q784 562 730 673T575 784Q531 784 490 766T422 715ZM145 684Q145 717 139 725T111 741L37 770V813Q112 821 198 843T389 905H422V801Q505
859 570 884T698 909Q869 909 971 796T1073 494Q1073 398 1045 314T958 156Q888 63 799 16T606 -31Q538 -31 494 -19T422 18V-160Q422 -209 438 -228T496 -250L551 -252V-313H35V-252L71 -250Q112 -247 128 -228T145 -160V684Z" />
<glyph unicode="q" glyph-name="q" horiz-adv-x="1139" d="M725 162V636Q716 728 665 785T541 842Q453 842 408 760T362 520Q362 313 417 203T575 92Q616 92 657 111T725 162ZM723 78Q647 21 578 -5T436 -31Q274 -31 174 85T74 393Q74 617 211 764T553 911Q691
911 847 830Q887 809 897 809Q914 809 922 814T940 838L965 883H1001V-160Q1001 -208 1018 -227T1076 -250L1110 -252V-313H596V-252L651 -250Q691 -248 707 -229T723 -160V78Z" />
<glyph unicode="r" glyph-name="r" horiz-adv-x="856" d="M41 0V61L75 63Q116 66 133 85T150 154V684Q149 717 143 725T115 741L41 770V813Q113 819 194 840T393 905H428V715Q507 812 564 849T682 887Q753 887 794 845T836 729Q836 663 799 625T700 586Q640 586
584 637T512 688Q472 688 450 654T428 557V154Q428 104 444 85T500 63L567 61V0H41Z" />
<glyph unicode="s" glyph-name="s" horiz-adv-x="782" d="M82 49V338H113Q156 197 241 114T428 31Q488 31 522 61T557 143Q557 223 397 319Q374 333 363 340Q352 345 334 354Q82 478 82 623Q82 743 174 826T401 909Q479 909 543 894T666 846L682 588H651Q600 706
525 774T371 842Q327 842 301 817T274 750Q274 678 431 606Q462 592 479 584Q626 526 688 450T750 252Q750 127 658 49T416 -29Q340 -29 257 -10T82 49Z" />
<glyph unicode="t" glyph-name="t" horiz-adv-x="690" d="M135 786H45V825Q129 892 209 971T367 1145L401 1124V883H686L645 786H401V229Q401 125 423 92T504 59Q551 59 595 79T672 133L705 111Q654 43 571 6T385 -31Q316 -31 263 -12T178 43Q155 71 145 115T135
264V293V786Z" />
<glyph unicode="u" glyph-name="u" horiz-adv-x="1171" d="M1024 883V199Q1024 167 1031 158T1059 141L1133 113V68Q1065 62 982 42T780 -20H748V123Q670 51 589 16T424 -20Q349 -20 285 5T184 76Q159 106 148 144T137 256V309V729Q137 777 121 795T64 817L29
819V883H416V260Q416 178 445 149T549 119Q607 119 660 142T748 205V729Q748 777 732 795T674 817L637 819V883H1024Z" />
<glyph unicode="v" glyph-name="v" d="M430 -29L76 725Q53 774 16 799T-72 826V883H463V825L408 823Q389 823 378 810T367 774Q367 767 369 758T375 739L563 326L694 612Q708 642 715 672T723 725Q723 773 691 797T592 826V883H958V825Q905 817 869 783T786 649L477
-29H430Z" />
<glyph unicode="w" glyph-name="w" horiz-adv-x="1505" d="M709 725Q688 773 654 798T570 825L569 883H1083V825L1030 821Q1011 819 1001 808T991 776Q991 764 998 743Q999 741 999 739L1165 326L1300 612Q1314 642 1321 671T1329 727Q1329 775 1298 798T1198
826V883H1565L1564 825Q1511 816 1476 784T1391 649L1061 -29H1014L750 623L442 -29H395L76 725Q55 772 17 798T-72 826V883H461V825L407 823Q389 822 377 809T365 774Q365 768 367 760T375 739L541 332L717 705L709 725Z" />
<glyph unicode="x" glyph-name="x" horiz-adv-x="975" d="M643 678Q660 696 671 719T682 760Q682 785 664 800T611 821L588 825V883H979V832Q917 824 869 799T776 723L602 530L850 168Q887 115 928 88T1018 55V0H463V59L504 61Q525 61 536 72T547 104Q547 114
543 125T528 150L420 315L324 205Q302 179 295 163T287 127Q287 98 306 81T363 59L399 57V0H-33V57H-25Q39 57 87 81T184 160L381 377L154 715Q118 767 73 795T-24 827L-25 883H541V823H502Q482 823 470 810T457 776Q457 768 460 758T475 731L563 592L643 678Z"
/>
<glyph unicode="y" glyph-name="y" horiz-adv-x="895" d="M410 0L76 725Q54 773 17 798T-72 826V883H465V825L405 821Q384 819 372 807T360 774Q360 768 362 761T371 739L561 322L700 614Q715 644 722 671T729 727Q729 776 696 799T590 826V883H952V825Q869 812
799 665Q795 656 793 651L489 14Q390 -196 339 -254T225 -313Q167 -313 135 -280T102 -186Q102 -130 132 -96T211 -61Q236 -61 256 -70T291 -96Q299 -105 304 -129T322 -154Q327 -153 331 -148T346 -125L410 0Z" />
<glyph unicode="z" glyph-name="z" horiz-adv-x="1004" d="M57 0V45L582 829Q574 829 560 830T539 831Q400 831 296 763T104 547H57L156 883H928V836L406 59H483Q603 59 723 146T950 399H985L903 0H57Z" />
<glyph unicode="{" glyph-name="braceleft" horiz-adv-x="1024" d="M852 1516V1455Q731 1452 687 1400T643 1190V1057Q643 832 590 750T393 635Q536 603 589 522T643 215V80Q643 -78 687 -130T852 -185V-244Q617 -244 532 -172T446 102V295Q446 460 390 521T178
598V674Q334 689 390 750T446 977V1169Q446 1370 531 1443T852 1516Z" />
<glyph unicode="|" glyph-name="bar" horiz-adv-x="1024" d="M410 1565H616V-483H410V1565Z" />
<glyph unicode="}" glyph-name="braceright" horiz-adv-x="1024" d="M172 1516Q408 1516 494 1443T580 1169V977Q580 812 636 751T848 674V598Q692 583 636 522T580 295V102Q580 -96 495 -170T184 -244H172V-185Q291 -183 336 -130T381 80V215Q381 441 434 522T631
635Q488 668 435 750T381 1057V1190Q381 1346 336 1399T172 1455V1516Z" />
<glyph unicode="~" glyph-name="asciitilde" horiz-adv-x="1706" d="M1530 803V582Q1426 511 1334 478T1151 444Q1105 444 1059 452T967 475Q943 483 896 500Q677 575 563 575Q478 575 386 538T178 418V639Q285 711 382 746T565 782Q682 782 856 724Q859 723 860
723Q878 717 915 704Q1070 649 1155 649Q1240 649 1330 686T1530 803Z" />
<glyph unicode="&#xa0;" glyph-name="nbspace" horiz-adv-x="1204" />
<glyph unicode="&#xa1;" glyph-name="exclamdown" horiz-adv-x="649" d="M336 981V967Q336 881 349 808T395 653Q404 630 422 585Q500 394 500 293Q500 200 460 127T324 -29Q227 53 187 126T147 293Q147 391 222 574Q244 626 254 653Q285 732 298 805T311 967V981H336ZM135
1300Q135 1379 190 1434T324 1489Q402 1489 457 1434T512 1300Q512 1223 457 1168T324 1112Q247 1112 191 1167T135 1300Z" />
<glyph unicode="&#xa2;" glyph-name="cent" horiz-adv-x="1204" d="M541 213V858Q435 840 379 760T322 549Q322 424 380 335T541 213ZM965 324Q927 191 837 108T612 0V-229H541V-2Q329 6 201 130T72 449Q72 640 201 772T541 922V1098H612V926Q764 914 855 838T946
647Q946 580 913 542T821 504Q751 504 711 546T670 662Q670 689 683 732T696 791Q696 826 678 844T625 862H612V190Q627 186 643 184T678 182Q748 182 810 220T930 338L965 324Z" />
<glyph unicode="&#xa3;" glyph-name="sterling" horiz-adv-x="1204" d="M489 152Q421 217 371 243T272 270Q220 270 188 241T156 166Q156 110 196 75T301 39Q353 39 398 66T489 152ZM383 735H133V805H328Q260 887 229 961T197 1114Q197 1282 325 1391T653 1501Q822
1501 945 1428T1069 1264Q1069 1214 1034 1181T946 1147Q883 1147 845 1184T807 1284Q807 1290 808 1304T809 1325Q809 1384 771 1411T649 1438Q534 1438 470 1386T406 1241Q406 1137 656 827Q668 812 674 805H944V735H709Q730 686 741 639T752 547Q752 475 721
394T629 227Q692 188 746 169T850 150Q953 150 1021 221T1110 422L1157 421Q1154 211 1063 83T829 -45Q766 -45 695 -10T537 98Q484 34 429 4T305 -27Q204 -27 139 29T74 172Q74 254 138 308T303 362Q364 362 426 339T563 264Q565 276 566 289T567 332Q567 439
520 542T383 735Z" />
<glyph unicode="&#xa4;" glyph-name="currency" horiz-adv-x="1241" d="M623 1161Q510 1161 428 1079T346 885Q346 771 427 691T623 610Q736 610 817 690T899 885Q899 997 818 1079T623 1161ZM172 1438L377 1235Q431 1274 491 1293T621 1313Q691 1313 752 1294T868
1235L1071 1438L1176 1331L973 1126Q1011 1073 1030 1013T1049 885Q1049 818 1030 758T973 643L1176 438L1071 334L868 537Q814 497 753 478T623 459Q551 459 491 478T377 537L172 334L68 438L270 643Q232 697 214 756T195 885Q195 952 213 1012T270 1126L68 1331L172
1438Z" />
<glyph unicode="&#xa5;" glyph-name="yen" horiz-adv-x="1339" d="M823 168Q823 110 853 88T967 61L1024 59V0H328V59L385 61Q468 65 498 87T528 168V594H82V662H528V711L371 938H82V1006H322L100 1323Q72 1362 41 1380T-39 1403V1460H614V1403L535 1399Q494 1397
474 1385T453 1350Q453 1339 456 1330T465 1311L799 823L1063 1212Q1079 1235 1087 1260T1096 1307Q1096 1354 1066 1377T973 1403V1460H1386V1403Q1320 1396 1273 1365T1171 1253L1004 1006H1266V938H958L823 739V662H1266V594H823V168Z" />
<glyph unicode="&#xa6;" glyph-name="brokenbar" horiz-adv-x="1024" d="M410 408H616V-350H410V408ZM410 1432H616V674H410V1432Z" />
<glyph unicode="&#xa7;" glyph-name="section" horiz-adv-x="1073" d="M317 827Q265 793 238 756T211 678Q211 563 637 440Q712 418 754 406L755 407Q852 510 852 561Q852 647 590 732Q424 786 317 827ZM260 866Q195 919 165 976T135 1106Q135 1276 253 1382T561
1489Q706 1489 796 1429T887 1276Q887 1219 852 1186T756 1153Q709 1153 678 1182T631 1270Q626 1287 622 1316Q605 1415 518 1415Q422 1415 363 1365T303 1233Q303 1102 582 1008Q615 997 633 991Q848 919 914 851T981 668Q981 589 940 519T807 373Q879 324 910
263T942 113Q942 -63 822 -173T508 -283Q340 -283 240 -226T139 -76Q139 -17 176 19T274 55Q335 55 368 20T412 -92Q412 -93 412 -95Q431 -217 553 -217Q656 -217 724 -158T793 -8Q793 125 516 210Q504 213 498 215Q224 299 143 368T61 551Q61 633 108 708T260
866Z" />
<glyph unicode="&#xa8;" glyph-name="dieresis" horiz-adv-x="1024" d="M590 1184Q590 1229 624 1262T705 1296Q750 1296 782 1263T815 1184Q815 1134 784 1103T705 1071Q656 1071 623 1103T590 1184ZM207 1184Q207 1229 240 1262T319 1296Q366 1296 399 1263T432
1184Q432 1135 401 1103T319 1071Q270 1071 239 1103T207 1184Z" />
<glyph unicode="&#xa9;" glyph-name="copyright" horiz-adv-x="1683" d="M1126 1102H1171V776H1124Q1093 907 1024 978T860 1049Q742 1049 685 959T627 684Q627 499 689 403T872 307Q952 307 1020 351T1145 481L1190 453Q1127 346 1040 292T842 238Q657 238 534
360T410 664Q410 855 531 980T836 1106Q915 1106 989 1073T1069 1040Q1093 1040 1106 1055T1126 1102ZM844 1309Q717 1309 603 1261T399 1122Q310 1032 264 918T217 678Q217 550 263 436T399 233Q489 144 601 98T842 51Q969 51 1082 98T1282 233Q1371 324 1418
439T1466 678Q1466 805 1419 922T1284 1124Q1197 1212 1081 1260T844 1309ZM844 1413Q985 1413 1119 1357T1358 1198Q1460 1096 1517 959T1575 678Q1575 535 1519 401T1358 160Q1256 56 1123 2T842 -53Q694 -53 563 1T326 160Q221 264 166 397T111 678Q111 826
165 959T324 1196Q427 1300 563 1356T844 1413Z" />
<glyph unicode="&#xaa;" glyph-name="ordfeminine" horiz-adv-x="754" d="M449 977V1174L379 1147Q306 1121 267 1085T227 1006Q227 970 249 949T307 928Q343 928 378 940T449 977ZM454 923Q364 869 305 846T201 823Q136 823 94 860T51 956Q51 1018 108 1065T326
1174L449 1221V1350Q449 1391 432 1411T379 1432Q325 1432 283 1405T240 1341Q240 1335 244 1313T248 1276Q248 1228 217 1197T139 1165Q97 1165 73 1187T49 1247Q49 1279 73 1311T145 1378Q215 1429 290 1454T446 1479Q562 1479 605 1439T649 1276V954Q649 927
656 916T680 905Q698 905 716 912T756 936L770 903Q722 868 673 850T575 831Q517 831 488 853T454 923Z" />
<glyph unicode="&#xab;" glyph-name="guillemotleft" horiz-adv-x="1049" d="M512 440L823 729Q857 761 879 774T918 788Q939 788 948 777T958 741Q958 732 953 720T938 692L768 440L938 188Q948 174 953 162T958 139Q958 115 949 104T918 92Q901 92 879 105T823
152L512 440ZM102 440L414 729Q448 761 469 774T508 788Q529 788 539 777T549 741Q549 732 544 720T528 692L358 440L528 188Q539 174 544 162T549 139Q549 115 539 104T508 92Q491 92 470 105T414 152L102 440Z" />
<glyph unicode="&#xac;" glyph-name="logicalnot" horiz-adv-x="1706" d="M254 864H1452V362H1253V668H254V864Z" />
<glyph unicode="&#xad;" glyph-name="sfthyphen" horiz-adv-x="748" d="M633 567V315H115V567H633Z" />
<glyph unicode="&#xae;" glyph-name="registered" horiz-adv-x="1683" d="M760 723Q767 722 776 722T803 721Q899 721 947 766T995 901Q995 961 952 1004T846 1047Q802 1047 781 1031T760 981V723ZM465 1098H868Q1014 1098 1102 1043T1190 899Q1190 813 1126 765T911
690Q1006 668 1060 621T1130 496Q1136 471 1140 422Q1145 338 1186 338Q1214 338 1228 367T1243 455V467H1294V444Q1294 356 1250 310T1122 264Q1075 264 1040 278T983 319Q955 359 950 453Q948 498 944 520Q930 599 890 636T778 674H760V428Q760 382 780 363T858
336V285H465V335Q526 339 548 359T571 428V950Q571 999 549 1019T465 1045V1098ZM844 1309Q718 1309 603 1261T399 1122Q310 1032 264 918T217 678Q217 550 263 436T399 233Q489 144 601 98T842 51Q969 51 1082 98T1282 233Q1371 324 1418 439T1466 678Q1466 803
1418 921T1282 1124Q1194 1212 1080 1260T844 1309ZM844 1413Q989 1413 1128 1354T1370 1188Q1468 1087 1520 952T1573 666Q1573 527 1512 389T1341 145Q1242 49 1114 -2T842 -53Q732 -53 631 -23T440 68Q283 172 197 331T111 678Q111 824 166 958T324 1196Q426
1300 561 1356T844 1413Z" />
<glyph unicode="&#xaf;" glyph-name="overscore" horiz-adv-x="1024" d="M242 1114V1253H782V1114H242Z" />
<glyph unicode="&#xb0;" glyph-name="degree" horiz-adv-x="674" d="M338 1335Q265 1335 214 1284T162 1161Q162 1087 213 1036T338 985Q410 985 461 1037T512 1161Q512 1233 461 1284T338 1335ZM338 1464Q464 1464 552 1375T641 1159Q641 1034 552 945T336 856Q210
856 123 944T35 1159Q35 1286 123 1375T338 1464Z" />
<glyph unicode="&#xb1;" glyph-name="plusminus" horiz-adv-x="1706" d="M254 197H1452V-2H254V197ZM752 1223H954V897H1452V698H954V373H752V698H254V897H752V1223Z" />
<glyph unicode="&#xb2;" glyph-name="twosuperior" horiz-adv-x="795" d="M582 774Q632 774 662 793T709 856L737 850L618 584H45V612Q75 675 128 738T252 860Q266 871 292 892Q401 979 428 1008Q475 1058 496 1102T518 1192Q518 1265 471 1309T344 1354Q274 1354
202 1319T63 1217L37 1233Q112 1357 211 1421T430 1485Q563 1485 646 1414T729 1231Q729 1151 683 1085T543 965Q502 941 423 900Q274 823 225 774H582Z" />
<glyph unicode="&#xb3;" glyph-name="threesuperior" horiz-adv-x="795" d="M221 1018V1040Q342 1063 408 1113T475 1231Q475 1284 435 1319T332 1354Q278 1354 235 1334T154 1270L133 1282Q169 1380 241 1432T412 1485Q512 1485 573 1434T635 1298Q635 1234 596
1186T483 1112Q606 1080 671 1010T737 838Q737 715 632 636T360 557Q214 557 126 602T37 721Q37 763 67 791T141 819Q189 819 218 793T248 723Q248 717 246 703T244 680Q244 647 279 627T371 606Q454 606 500 649T547 768Q547 867 458 935T221 1018Z" />
<glyph unicode="&#xb4;" glyph-name="acute" horiz-adv-x="1024" d="M336 1022L612 1321Q639 1350 667 1366T719 1382Q750 1382 772 1360T795 1305Q795 1278 778 1257T711 1204L410 1022H336Z" />
<glyph unicode="&#xb5;" glyph-name="mu" horiz-adv-x="1202" d="M178 209Q166 114 149 -43Q109 -424 -6 -424Q-60 -424 -90 -394T-121 -309Q-121 -262 -53 -35T53 373L162 885H418L319 426Q308 373 303 337T297 279Q297 220 327 187T412 154Q483 154 528 207T596
373L705 885H961L846 352Q837 311 833 286T829 242Q829 195 846 175T903 154Q943 154 969 172T1014 231Q1022 250 1035 281Q1062 350 1090 350Q1105 350 1113 340T1122 311Q1122 277 1106 223T1063 121Q1022 47 964 11T827 -25Q742 -25 698 23T643 174Q603 68 545
22T395 -25Q302 -25 246 36T178 209Z" />
<glyph unicode="&#xb6;" glyph-name="paragraph" horiz-adv-x="1024" d="M983 1479V1368H870V0H719V1368H561V0H408V784Q241 790 141 885T41 1130Q41 1288 148 1383T432 1479H983Z" />
<glyph unicode="&#xb7;" glyph-name="middot" horiz-adv-x="602" d="M469 743Q469 680 418 629T301 578Q236 578 186 628T135 743Q135 809 185 860T301 911Q366 911 417 860T469 743Z" />
<glyph unicode="&#xb8;" glyph-name="cedilla" horiz-adv-x="1024" d="M246 -379L283 -289Q342 -327 402 -347T514 -367Q571 -367 599 -345T627 -276Q627 -233 599 -212T516 -190Q503 -190 487 -192T455 -196V0H520V-115Q531 -113 543 -112T582 -111Q669 -111
718 -154T768 -276Q768 -360 709 -407T543 -455Q484 -455 412 -437T246 -379Z" />
<glyph unicode="&#xb9;" glyph-name="onesuperior" horiz-adv-x="795" d="M133 584V621L209 623Q261 623 283 649T305 745V1300Q305 1331 272 1342T137 1356V1386Q234 1400 327 1423T510 1479V745Q510 675 532 649T608 623L684 621V584H133Z" />
<glyph unicode="&#xba;" glyph-name="ordmasculine" horiz-adv-x="870" d="M49 1153Q49 1297 157 1389T436 1481Q606 1481 713 1389T821 1153Q821 1008 714 916T436 823Q266 823 158 915T49 1153ZM436 877Q514 877 554 947T594 1153Q594 1285 553 1356T436 1427Q360
1427 320 1357T279 1153Q279 1020 320 949T436 877Z" />
<glyph unicode="&#xbb;" glyph-name="guillemotright" horiz-adv-x="1049" d="M537 440L225 152Q191 119 170 106T131 92Q110 92 100 103T90 139Q90 149 95 161T111 188L281 440L111 692Q100 707 95 719T90 741Q90 766 100 777T131 788Q148 788 169 775T225 729L537
440ZM946 440L635 152Q601 119 580 106T541 92Q519 92 510 103T500 139Q500 149 505 161T520 188L690 440L520 692Q510 707 505 719T500 741Q500 766 509 777T541 788Q558 788 579 775T635 729L946 440Z" />
<glyph unicode="&#xbc;" glyph-name="onequarter" horiz-adv-x="1860" d="M1489 322V627L1212 322H1489ZM1489 0V244H1159V322L1620 842H1679V322H1817V244H1679V0H1489ZM418 -43L1309 1503H1440L549 -43H418ZM127 643V678H199Q250 679 271 704T293 793V1311Q293
1340 262 1351T134 1364L133 1393Q226 1405 314 1426T487 1479V793Q487 729 509 704T581 678H653V643H127Z" />
<glyph unicode="&#xbd;" glyph-name="onehalf" horiz-adv-x="1860" d="M1655 178Q1702 178 1730 196T1776 254L1802 250L1692 0H1143V27Q1172 85 1222 144T1341 258Q1361 274 1397 302Q1487 371 1509 395Q1552 441 1572 483T1593 567Q1593 636 1548 677T1427 719Q1361
719 1293 686T1161 590L1137 606Q1207 722 1301 782T1509 842Q1636 842 1716 775T1796 604Q1796 529 1752 468T1618 356Q1579 334 1505 296Q1362 223 1315 178H1655ZM418 -43L1309 1503H1440L549 -43H418ZM127 643V678H199Q250 679 271 704T293 793V1311Q293 1340
262 1351T134 1364L133 1393Q226 1405 314 1426T487 1479V793Q487 729 509 704T581 678H653V643H127Z" />
<glyph unicode="&#xbe;" glyph-name="threequarters" horiz-adv-x="1860" d="M1489 322V627L1212 322H1489ZM1489 0V244H1159V322L1620 842H1679V322H1817V244H1679V0H1489ZM418 -43L1309 1503H1440L549 -43H418ZM211 1049V1069Q326 1090 389 1137T453 1247Q453
1298 415 1330T317 1362Q266 1362 226 1344T147 1284L127 1296Q162 1387 231 1436T393 1485Q488 1485 546 1437T604 1311Q604 1249 569 1205T463 1137Q580 1106 642 1039T705 879Q705 766 604 692T344 618Q204 618 121 660T37 772Q37 810 65 836T135 862Q180 862
208 838T236 774Q236 768 235 755T233 733Q233 702 266 684T354 666Q433 666 477 705T522 815Q522 907 438 971T211 1049Z" />
<glyph unicode="&#xbf;" glyph-name="questiondown" horiz-adv-x="1028" d="M686 999Q694 884 709 780T745 582Q732 582 706 583Q631 586 608 586Q387 586 262 505T137 283Q137 190 208 129T389 68Q437 68 470 86T551 166Q606 240 651 268T750 297Q812 297 851
262T891 170Q891 75 800 22T543 -31Q310 -31 176 79T41 381Q41 564 196 686T614 827L631 999H686ZM461 1300Q461 1379 516 1434T649 1489Q728 1489 783 1434T838 1300Q838 1223 783 1168T649 1112Q572 1112 517 1167T461 1300Z" />
<glyph unicode="&#xc0;" glyph-name="Agrave" horiz-adv-x="1343" d="M293 492H745L524 1040L293 492ZM-100 0V57Q-23 67 26 113T150 328L467 1057Q470 1063 471 1069T473 1081Q473 1089 469 1097T455 1114L412 1155Q479 1230 534 1313T631 1489H696L1237 219Q1277
126 1315 93T1413 59H1419V0H717V59L781 66Q828 70 851 90T874 150Q874 162 868 184T844 252L774 426H264L238 338Q232 322 229 300T225 254Q225 166 274 115T412 57V0H-100ZM848 1600H774L473 1782Q424 1813 407 1834T389 1883Q389 1915 411 1937T465 1960Q489
1960 517 1944T572 1899L848 1600Z" />
<glyph unicode="&#xc1;" glyph-name="Aacute" horiz-adv-x="1343" d="M293 492H745L524 1040L293 492ZM-100 0V57Q-23 67 26 113T150 328L467 1057Q470 1063 471 1069T473 1081Q473 1089 469 1097T455 1114L412 1155Q479 1230 534 1313T631 1489H696L1237 219Q1277
126 1315 93T1413 59H1419V0H717V59L781 66Q828 70 851 90T874 150Q874 162 868 184T844 252L774 426H264L238 338Q232 322 229 300T225 254Q225 166 274 115T412 57V0H-100ZM496 1600L772 1899Q799 1928 827 1944T879 1960Q910 1960 932 1938T955 1883Q955 1856
938 1835T871 1782L570 1600H496Z" />
<glyph unicode="&#xc2;" glyph-name="Acircumflex" horiz-adv-x="1343" d="M293 492H745L524 1040L293 492ZM-100 0V57Q-23 67 26 113T150 328L467 1057Q470 1063 471 1069T473 1081Q473 1089 469 1097T455 1114L412 1155Q479 1230 534 1313T631 1489H696L1237
219Q1277 126 1315 93T1413 59H1419V0H717V59L781 66Q828 70 851 90T874 150Q874 162 868 184T844 252L774 426H264L238 338Q232 322 229 300T225 254Q225 166 274 115T412 57V0H-100ZM377 1600L604 1948H738L967 1600H893L672 1795L451 1600H377Z" />
<glyph unicode="&#xc3;" glyph-name="Atilde" horiz-adv-x="1343" d="M293 492H745L524 1040L293 492ZM-100 0V57Q-23 67 26 113T150 328L467 1057Q470 1063 471 1069T473 1081Q473 1089 469 1097T455 1114L412 1155Q479 1230 534 1313T631 1489H696L1237 219Q1277
126 1315 93T1413 59H1419V0H717V59L781 66Q828 70 851 90T874 150Q874 162 868 184T844 252L774 426H264L238 338Q232 322 229 300T225 254Q225 166 274 115T412 57V0H-100ZM955 1917Q933 1805 884 1747T760 1688Q749 1688 736 1689T709 1694L602 1721Q585 1725
572 1727T549 1729Q507 1729 484 1709T447 1639H389Q413 1756 461 1813T586 1870Q602 1870 618 1868T649 1862L759 1835Q771 1832 783 1831T809 1829Q843 1829 865 1851T897 1917H955Z" />
<glyph unicode="&#xc4;" glyph-name="Adieresis" horiz-adv-x="1343" d="M293 492H745L524 1040L293 492ZM-100 0V57Q-23 67 26 113T150 328L467 1057Q470 1063 471 1069T473 1081Q473 1089 469 1097T455 1114L412 1155Q479 1230 534 1313T631 1489H696L1237 219Q1277
126 1315 93T1413 59H1419V0H717V59L781 66Q828 70 851 90T874 150Q874 162 868 184T844 252L774 426H264L238 338Q232 322 229 300T225 254Q225 166 274 115T412 57V0H-100ZM750 1762Q750 1807 784 1840T865 1874Q910 1874 942 1841T975 1762Q975 1712 944 1681T865
1649Q816 1649 783 1681T750 1762ZM367 1762Q367 1807 400 1840T479 1874Q526 1874 559 1841T592 1762Q592 1713 561 1681T479 1649Q430 1649 399 1681T367 1762Z" />
<glyph unicode="&#xc5;" glyph-name="Aring" horiz-adv-x="1343" d="M530 1724Q530 1664 571 1623T672 1581Q730 1581 771 1623T813 1724Q813 1784 772 1825T672 1866Q612 1866 571 1825T530 1724ZM424 1724Q424 1829 495 1900T672 1972Q776 1972 848 1901T920
1724Q920 1620 848 1549T672 1477Q567 1477 496 1548T424 1724ZM293 492H745L524 1040L293 492ZM-100 0V57Q-23 67 26 113T150 328L467 1057Q470 1063 471 1069T473 1081Q473 1089 469 1097T455 1114L412 1155Q492 1211 553 1275T659 1413H727L1237 219Q1280 123
1317 91T1413 59H1419V0H717V59L781 66Q828 70 851 90T874 150Q874 162 868 184T844 252L774 426H264L238 338Q232 322 229 300T225 254Q225 166 274 115T412 57V0H-100Z" />
<glyph unicode="&#xc6;" glyph-name="AE" horiz-adv-x="2109" d="M907 500V1403L330 500H907ZM2021 0H723V61H765Q850 66 878 88T907 168V434H289L227 334Q213 311 206 285T199 231Q199 162 244 119T375 61V0H-141V61H-133Q-85 61 -18 129T139 340L750 1296Q760
1313 765 1325T770 1348Q770 1378 738 1390T621 1403V1460H1886L2013 1112L1985 1102L1905 1192Q1814 1299 1724 1351T1540 1403H1386Q1307 1403 1276 1381T1245 1300V782H1374Q1485 782 1563 865T1663 1090H1704V430H1663Q1642 564 1562 646T1374 729H1245V168Q1245
110 1277 86T1386 61H1536Q1688 61 1797 129T2021 362L2075 428L2101 422L2021 0Z" />
<glyph unicode="&#xc7;" glyph-name="Ccedilla" horiz-adv-x="1526" d="M1458 -10H1411L1386 41Q1386 41 1386 42Q1372 74 1348 74Q1337 74 1289 56Q1059 -29 836 -29Q687 -29 552 22T317 168Q203 276 143 420T82 729Q82 894 142 1039T317 1292Q416 1386 551 1437T836
1489Q937 1489 1032 1470T1227 1411Q1242 1405 1268 1393Q1314 1372 1333 1372Q1350 1372 1365 1391T1397 1450H1432V977H1384Q1274 1192 1138 1307T858 1423Q672 1423 566 1239T459 729Q459 386 559 212T858 37Q1006 37 1142 146T1413 481H1458V-10ZM582 -379L619
-289Q678 -327 738 -347T850 -367Q907 -367 935 -345T963 -276Q963 -233 935 -212T852 -190Q839 -190 823 -192T791 -196V0H856V-115Q867 -113 879 -112T918 -111Q1005 -111 1054 -154T1104 -276Q1104 -360 1045 -407T879 -455Q820 -455 748 -437T582 -379Z" />
<glyph unicode="&#xc8;" glyph-name="Egrave" horiz-adv-x="1419" d="M1331 0H33V59L75 61Q161 67 189 89T217 168V1300Q217 1358 191 1379T75 1407H33V1460H1196L1323 1112L1294 1102L1217 1192Q1124 1300 1033 1353T852 1407H696Q619 1407 587 1383T555 1300V782H684Q795
782 873 865T973 1090H1014V430H973Q952 564 872 646T684 729H555V168Q555 110 587 86T696 61H846Q996 61 1106 129T1331 362L1384 428L1411 416L1331 0ZM887 1600H813L512 1782Q463 1813 446 1834T428 1883Q428 1915 450 1937T504 1960Q528 1960 556 1944T611
1899L887 1600Z" />
<glyph unicode="&#xc9;" glyph-name="Eacute" horiz-adv-x="1419" d="M1331 0H33V59L75 61Q161 67 189 89T217 168V1300Q217 1358 191 1379T75 1407H33V1460H1196L1323 1112L1294 1102L1217 1192Q1124 1300 1033 1353T852 1407H696Q619 1407 587 1383T555 1300V782H684Q795
782 873 865T973 1090H1014V430H973Q952 564 872 646T684 729H555V168Q555 110 587 86T696 61H846Q996 61 1106 129T1331 362L1384 428L1411 416L1331 0ZM535 1600L811 1899Q838 1928 866 1944T918 1960Q949 1960 971 1938T994 1883Q994 1856 977 1835T910 1782L609
1600H535Z" />
<glyph unicode="&#xca;" glyph-name="Ecircumflex" horiz-adv-x="1419" d="M1331 0H33V59L75 61Q161 67 189 89T217 168V1300Q217 1358 191 1379T75 1407H33V1460H1196L1323 1112L1294 1102L1217 1192Q1124 1300 1033 1353T852 1407H696Q619 1407 587 1383T555
1300V782H684Q795 782 873 865T973 1090H1014V430H973Q952 564 872 646T684 729H555V168Q555 110 587 86T696 61H846Q996 61 1106 129T1331 362L1384 428L1411 416L1331 0ZM416 1600L643 1948H777L1006 1600H932L711 1795L490 1600H416Z" />
<glyph unicode="&#xcb;" glyph-name="Edieresis" horiz-adv-x="1419" d="M1331 0H33V59L75 61Q161 67 189 89T217 168V1300Q217 1358 191 1379T75 1407H33V1460H1196L1323 1112L1294 1102L1217 1192Q1124 1300 1033 1353T852 1407H696Q619 1407 587 1383T555 1300V782H684Q795
782 873 865T973 1090H1014V430H973Q952 564 872 646T684 729H555V168Q555 110 587 86T696 61H846Q996 61 1106 129T1331 362L1384 428L1411 416L1331 0ZM789 1762Q789 1807 823 1840T904 1874Q949 1874 981 1841T1014 1762Q1014 1712 983 1681T904 1649Q855 1649
822 1681T789 1762ZM406 1762Q406 1807 439 1840T518 1874Q565 1874 598 1841T631 1762Q631 1713 600 1681T518 1649Q469 1649 438 1681T406 1762Z" />
<glyph unicode="&#xcc;" glyph-name="Igrave" horiz-adv-x="772" d="M739 1460V1411L696 1407Q612 1402 584 1380T555 1300V168Q555 111 583 89T697 61L739 59V0H33V59L75 61Q161 67 189 89T217 168V1300Q217 1357 189 1379T76 1407L33 1411V1460H739ZM564 1600H490L189
1782Q140 1813 123 1834T105 1883Q105 1915 127 1937T181 1960Q205 1960 233 1944T288 1899L564 1600Z" />
<glyph unicode="&#xcd;" glyph-name="Iacute" horiz-adv-x="772" d="M739 1460V1411L696 1407Q612 1402 584 1380T555 1300V168Q555 111 583 89T697 61L739 59V0H33V59L75 61Q161 67 189 89T217 168V1300Q217 1357 189 1379T76 1407L33 1411V1460H739ZM212 1600L488
1899Q515 1928 543 1944T595 1960Q626 1960 648 1938T671 1883Q671 1856 654 1835T587 1782L286 1600H212Z" />
<glyph unicode="&#xce;" glyph-name="Icircumflex" horiz-adv-x="772" d="M739 1460V1411L696 1407Q612 1402 584 1380T555 1300V168Q555 111 583 89T697 61L739 59V0H33V59L75 61Q161 67 189 89T217 168V1300Q217 1357 189 1379T76 1407L33 1411V1460H739ZM93
1600L320 1948H454L683 1600H609L388 1795L167 1600H93Z" />
<glyph unicode="&#xcf;" glyph-name="Idieresis" horiz-adv-x="772" d="M739 1460V1411L696 1407Q612 1402 584 1380T555 1300V168Q555 111 583 89T697 61L739 59V0H33V59L75 61Q161 67 189 89T217 168V1300Q217 1357 189 1379T76 1407L33 1411V1460H739ZM466
1762Q466 1807 500 1840T581 1874Q626 1874 658 1841T691 1762Q691 1712 660 1681T581 1649Q532 1649 499 1681T466 1762ZM83 1762Q83 1807 116 1840T195 1874Q242 1874 275 1841T308 1762Q308 1713 277 1681T195 1649Q146 1649 115 1681T83 1762Z" />
<glyph unicode="&#xd0;" glyph-name="Eth" horiz-adv-x="1683" d="M563 1300V829H895V743H563V168Q563 110 595 86T707 61H766Q989 61 1107 237T1225 745Q1225 938 1185 1091T1079 1313Q1035 1361 963 1384T788 1407H707Q628 1407 596 1383T563 1300ZM43 0V59L86
61Q170 66 198 88T227 168V743H10V829H227V1300Q227 1357 199 1379T86 1407L43 1411V1460H737Q953 1460 1060 1440T1253 1372Q1423 1279 1512 1115T1602 731Q1602 530 1514 368T1257 98Q1174 45 1068 23T727 0H43Z" />
<glyph unicode="&#xd1;" glyph-name="Ntilde" horiz-adv-x="1616" d="M1354 475V1114Q1354 1252 1295 1326T1120 1407V1460H1602V1407Q1508 1395 1464 1325T1419 1118V-27H1348L279 1249V346Q279 205 336 134T512 57V0H31V57Q123 70 167 139T211 346V1247Q211
1329 171 1368T45 1407H31V1460H526L1354 475ZM1092 1917Q1070 1805 1021 1747T897 1688Q886 1688 873 1689T846 1694L739 1721Q722 1725 709 1727T686 1729Q644 1729 621 1709T584 1639H526Q550 1756 598 1813T723 1870Q739 1870 755 1868T786 1862L896 1835Q908
1832 920 1831T946 1829Q980 1829 1002 1851T1034 1917H1092Z" />
<glyph unicode="&#xd2;" glyph-name="Ograve" horiz-adv-x="1673" d="M1591 729Q1591 564 1531 419T1356 168Q1256 74 1120 23T836 -29Q687 -29 553 22T317 168Q203 276 143 420T82 729Q82 894 142 1039T317 1292Q418 1387 552 1438T836 1489Q986 1489 1121 1438T1356
1292Q1470 1184 1530 1039T1591 729ZM836 37Q1015 37 1113 218T1212 729Q1212 1079 1119 1251T836 1423Q654 1423 557 1239T459 711Q459 377 554 207T836 37ZM1014 1600H940L639 1782Q590 1813 573 1834T555 1883Q555 1915 577 1937T631 1960Q655 1960 683 1944T738
1899L1014 1600Z" />
<glyph unicode="&#xd3;" glyph-name="Oacute" horiz-adv-x="1673" d="M1591 729Q1591 564 1531 419T1356 168Q1256 74 1120 23T836 -29Q687 -29 553 22T317 168Q203 276 143 420T82 729Q82 894 142 1039T317 1292Q418 1387 552 1438T836 1489Q986 1489 1121 1438T1356
1292Q1470 1184 1530 1039T1591 729ZM836 37Q1015 37 1113 218T1212 729Q1212 1079 1119 1251T836 1423Q654 1423 557 1239T459 711Q459 377 554 207T836 37ZM662 1600L938 1899Q965 1928 993 1944T1045 1960Q1076 1960 1098 1938T1121 1883Q1121 1856 1104 1835T1037
1782L736 1600H662Z" />
<glyph unicode="&#xd4;" glyph-name="Ocircumflex" horiz-adv-x="1673" d="M1591 729Q1591 564 1531 419T1356 168Q1256 74 1120 23T836 -29Q687 -29 553 22T317 168Q203 276 143 420T82 729Q82 894 142 1039T317 1292Q418 1387 552 1438T836 1489Q986 1489 1121
1438T1356 1292Q1470 1184 1530 1039T1591 729ZM836 37Q1015 37 1113 218T1212 729Q1212 1079 1119 1251T836 1423Q654 1423 557 1239T459 711Q459 377 554 207T836 37ZM543 1600L770 1948H904L1133 1600H1059L838 1795L617 1600H543Z" />
<glyph unicode="&#xd5;" glyph-name="Otilde" horiz-adv-x="1673" d="M1591 729Q1591 564 1531 419T1356 168Q1256 74 1120 23T836 -29Q687 -29 553 22T317 168Q203 276 143 420T82 729Q82 894 142 1039T317 1292Q418 1387 552 1438T836 1489Q986 1489 1121 1438T1356
1292Q1470 1184 1530 1039T1591 729ZM836 37Q1015 37 1113 218T1212 729Q1212 1079 1119 1251T836 1423Q654 1423 557 1239T459 711Q459 377 554 207T836 37ZM1121 1917Q1099 1805 1050 1747T926 1688Q915 1688 902 1689T875 1694L768 1721Q751 1725 738 1727T715
1729Q673 1729 650 1709T613 1639H555Q579 1756 627 1813T752 1870Q768 1870 784 1868T815 1862L925 1835Q937 1832 949 1831T975 1829Q1009 1829 1031 1851T1063 1917H1121Z" />
<glyph unicode="&#xd6;" glyph-name="Odieresis" horiz-adv-x="1673" d="M1591 729Q1591 564 1531 419T1356 168Q1256 74 1120 23T836 -29Q687 -29 553 22T317 168Q203 276 143 420T82 729Q82 894 142 1039T317 1292Q418 1387 552 1438T836 1489Q986 1489 1121
1438T1356 1292Q1470 1184 1530 1039T1591 729ZM836 37Q1015 37 1113 218T1212 729Q1212 1079 1119 1251T836 1423Q654 1423 557 1239T459 711Q459 377 554 207T836 37ZM916 1762Q916 1807 950 1840T1031 1874Q1076 1874 1108 1841T1141 1762Q1141 1712 1110 1681T1031
1649Q982 1649 949 1681T916 1762ZM533 1762Q533 1807 566 1840T645 1874Q692 1874 725 1841T758 1762Q758 1713 727 1681T645 1649Q596 1649 565 1681T533 1762Z" />
<glyph unicode="&#xd7;" glyph-name="multiply" horiz-adv-x="1706" d="M416 1202L866 752L1317 1202L1458 1063L1008 610L1458 160L1317 20L866 471L416 20L276 160L727 610L276 1063L416 1202Z" />
<glyph unicode="&#xd8;" glyph-name="Oslash" horiz-adv-x="1673" d="M1192 1012L520 279Q560 163 642 100T836 37Q1015 37 1113 218T1212 733Q1212 799 1207 869T1192 1012ZM90 -14L291 195Q190 291 136 429T82 729Q82 894 142 1039T317 1292Q416 1387 551 1438T836
1489Q972 1489 1097 1445T1329 1317L1438 1436H1579L1403 1245Q1499 1139 1545 1016T1591 745Q1591 612 1557 497T1456 285Q1354 137 1191 54T836 -29Q710 -29 597 8T375 121L254 -14H90ZM485 408L1165 1141Q1131 1275 1044 1349T836 1423Q653 1423 555 1237T457
702Q457 634 464 560T485 408Z" />
<glyph unicode="&#xd9;" glyph-name="Ugrave" horiz-adv-x="1657" d="M209 1300Q209 1357 181 1379T68 1407L23 1411V1460H737V1411L686 1407Q603 1404 574 1382T545 1300V463Q545 288 664 178T971 68Q1071 68 1165 113T1321 238Q1358 286 1374 349T1391 516V1110Q1391
1260 1336 1330T1160 1405L1159 1460H1638V1405Q1546 1393 1502 1322T1458 1114V553Q1458 410 1445 345T1401 229Q1323 104 1178 38T836 -29Q542 -29 376 103T209 471V1300ZM1026 1600H952L651 1782Q602 1813 585 1834T567 1883Q567 1915 589 1937T643 1960Q667
1960 695 1944T750 1899L1026 1600Z" />
<glyph unicode="&#xda;" glyph-name="Uacute" horiz-adv-x="1657" d="M209 1300Q209 1357 181 1379T68 1407L23 1411V1460H737V1411L686 1407Q603 1404 574 1382T545 1300V463Q545 288 664 178T971 68Q1071 68 1165 113T1321 238Q1358 286 1374 349T1391 516V1110Q1391
1260 1336 1330T1160 1405L1159 1460H1638V1405Q1546 1393 1502 1322T1458 1114V553Q1458 410 1445 345T1401 229Q1323 104 1178 38T836 -29Q542 -29 376 103T209 471V1300ZM674 1600L950 1899Q977 1928 1005 1944T1057 1960Q1088 1960 1110 1938T1133 1883Q1133
1856 1116 1835T1049 1782L748 1600H674Z" />
<glyph unicode="&#xdb;" glyph-name="Ucircumflex" horiz-adv-x="1657" d="M209 1300Q209 1357 181 1379T68 1407L23 1411V1460H737V1411L686 1407Q603 1404 574 1382T545 1300V463Q545 288 664 178T971 68Q1071 68 1165 113T1321 238Q1358 286 1374 349T1391
516V1110Q1391 1260 1336 1330T1160 1405L1159 1460H1638V1405Q1546 1393 1502 1322T1458 1114V553Q1458 410 1445 345T1401 229Q1323 104 1178 38T836 -29Q542 -29 376 103T209 471V1300ZM555 1600L782 1948H916L1145 1600H1071L850 1795L629 1600H555Z" />
<glyph unicode="&#xdc;" glyph-name="Udieresis" horiz-adv-x="1657" d="M209 1300Q209 1357 181 1379T68 1407L23 1411V1460H737V1411L686 1407Q603 1404 574 1382T545 1300V463Q545 288 664 178T971 68Q1071 68 1165 113T1321 238Q1358 286 1374 349T1391 516V1110Q1391
1260 1336 1330T1160 1405L1159 1460H1638V1405Q1546 1393 1502 1322T1458 1114V553Q1458 410 1445 345T1401 229Q1323 104 1178 38T836 -29Q542 -29 376 103T209 471V1300ZM928 1762Q928 1807 962 1840T1043 1874Q1088 1874 1120 1841T1153 1762Q1153 1712 1122
1681T1043 1649Q994 1649 961 1681T928 1762ZM545 1762Q545 1807 578 1840T657 1874Q704 1874 737 1841T770 1762Q770 1713 739 1681T657 1649Q608 1649 577 1681T545 1762Z" />
<glyph unicode="&#xdd;" glyph-name="Yacute" horiz-adv-x="1268" d="M823 168Q823 110 853 88T967 61L1024 59V0H281V59L339 61Q423 65 453 87T483 168V711L55 1323Q27 1362 -4 1380T-84 1403V1460H641V1403L562 1399Q521 1397 501 1385T481 1350Q481 1341 483
1333T494 1310L803 829L1063 1212Q1079 1235 1087 1260T1096 1307Q1096 1354 1066 1377T973 1403V1460H1386V1403Q1320 1395 1274 1364T1171 1253L823 739V168ZM459 1600L735 1899Q762 1928 790 1944T842 1960Q873 1960 895 1938T918 1883Q918 1856 901 1835T834
1782L533 1600H459Z" />
<glyph unicode="&#xde;" glyph-name="Thorn" horiz-adv-x="1294" d="M625 451Q786 451 861 527T936 768Q936 937 863 1020T641 1104H555V451H625ZM739 1460V1411L696 1407Q611 1402 583 1380T555 1300V1167H684Q844 1167 927 1152T1073 1102Q1165 1050 1215 962T1266
764Q1266 586 1128 486T743 385H555V168Q555 110 583 88T697 61L756 59V0H33V59L75 61Q161 67 189 89T217 168V1300Q217 1357 189 1379T76 1407L33 1411V1460H739Z" />
<glyph unicode="&#xdf;" glyph-name="germandbls" horiz-adv-x="1241" d="M152 999Q152 1236 281 1362T651 1489Q871 1489 995 1398T1120 1149Q1120 1031 1045 959T803 844Q982 813 1076 707T1171 430Q1171 233 1059 112T766 -10Q635 -10 554 59T473 240Q473 315
507 359T600 403Q650 403 678 376T707 299Q707 251 669 193T631 113Q631 89 647 78T694 66Q761 66 813 166T866 410Q866 602 790 696T555 791Q549 791 535 790T514 788V885H545Q698 885 768 950T838 1157Q838 1278 793 1338T657 1399Q530 1399 476 1308T422 991V0H39V61L77
63Q119 67 135 87T152 154V786H27L63 883H152V999Z" />
<glyph unicode="&#xe0;" glyph-name="agrave" horiz-adv-x="1006" d="M598 190V471L504 434Q406 396 355 344T303 231Q303 180 332 150T410 119Q456 119 503 137T598 190ZM606 112Q481 35 404 3T266 -29Q181 -29 125 24T68 160Q68 249 146 317T434 471L598 539V723Q598
781 575 810T506 840Q433 840 376 802T319 711Q319 700 324 669T330 618Q330 549 290 504T186 459Q129 459 98 489T66 575Q66 621 97 668T193 764Q288 836 388 871T596 907Q749 907 807 850T866 618V158Q866 117 875 103T907 88Q930 88 955 98T1008 131L1026 84Q963
33 898 8T768 -18Q690 -18 650 14T606 112ZM690 1022H616L315 1204Q266 1235 249 1256T231 1305Q231 1337 253 1359T307 1382Q331 1382 359 1366T414 1321L690 1022Z" />
<glyph unicode="&#xe1;" glyph-name="aacute" horiz-adv-x="1006" d="M598 190V471L504 434Q406 396 355 344T303 231Q303 180 332 150T410 119Q456 119 503 137T598 190ZM606 112Q481 35 404 3T266 -29Q181 -29 125 24T68 160Q68 249 146 317T434 471L598 539V723Q598
781 575 810T506 840Q433 840 376 802T319 711Q319 700 324 669T330 618Q330 549 290 504T186 459Q129 459 98 489T66 575Q66 621 97 668T193 764Q288 836 388 871T596 907Q749 907 807 850T866 618V158Q866 117 875 103T907 88Q930 88 955 98T1008 131L1026 84Q963
33 898 8T768 -18Q690 -18 650 14T606 112ZM338 1022L614 1321Q641 1350 669 1366T721 1382Q752 1382 774 1360T797 1305Q797 1278 780 1257T713 1204L412 1022H338Z" />
<glyph unicode="&#xe2;" glyph-name="acircumflex" horiz-adv-x="1006" d="M598 190V471L504 434Q406 396 355 344T303 231Q303 180 332 150T410 119Q456 119 503 137T598 190ZM606 112Q481 35 404 3T266 -29Q181 -29 125 24T68 160Q68 249 146 317T434 471L598
539V723Q598 781 575 810T506 840Q433 840 376 802T319 711Q319 700 324 669T330 618Q330 549 290 504T186 459Q129 459 98 489T66 575Q66 621 97 668T193 764Q288 836 388 871T596 907Q749 907 807 850T866 618V158Q866 117 875 103T907 88Q930 88 955 98T1008
131L1026 84Q963 33 898 8T768 -18Q690 -18 650 14T606 112ZM219 1022L446 1370H580L809 1022H735L514 1217L293 1022H219Z" />
<glyph unicode="&#xe3;" glyph-name="atilde" horiz-adv-x="1006" d="M598 190V471L504 434Q406 396 355 344T303 231Q303 180 332 150T410 119Q456 119 503 137T598 190ZM606 112Q481 35 404 3T266 -29Q181 -29 125 24T68 160Q68 249 146 317T434 471L598 539V723Q598
781 575 810T506 840Q433 840 376 802T319 711Q319 700 324 669T330 618Q330 549 290 504T186 459Q129 459 98 489T66 575Q66 621 97 668T193 764Q288 836 388 871T596 907Q749 907 807 850T866 618V158Q866 117 875 103T907 88Q930 88 955 98T1008 131L1026 84Q963
33 898 8T768 -18Q690 -18 650 14T606 112ZM797 1339Q775 1227 726 1169T602 1110Q591 1110 578 1111T551 1116L444 1143Q427 1147 414 1149T391 1151Q349 1151 326 1131T289 1061H231Q255 1178 303 1235T428 1292Q444 1292 460 1290T491 1284L601 1257Q613 1254
625 1253T651 1251Q685 1251 707 1273T739 1339H797Z" />
<glyph unicode="&#xe4;" glyph-name="adieresis" horiz-adv-x="1006" d="M598 190V471L504 434Q406 396 355 344T303 231Q303 180 332 150T410 119Q456 119 503 137T598 190ZM606 112Q481 35 404 3T266 -29Q181 -29 125 24T68 160Q68 249 146 317T434 471L598
539V723Q598 781 575 810T506 840Q433 840 376 802T319 711Q319 700 324 669T330 618Q330 549 290 504T186 459Q129 459 98 489T66 575Q66 621 97 668T193 764Q288 836 388 871T596 907Q749 907 807 850T866 618V158Q866 117 875 103T907 88Q930 88 955 98T1008
131L1026 84Q963 33 898 8T768 -18Q690 -18 650 14T606 112ZM592 1184Q592 1229 626 1262T707 1296Q752 1296 784 1263T817 1184Q817 1134 786 1103T707 1071Q658 1071 625 1103T592 1184ZM209 1184Q209 1229 242 1262T321 1296Q368 1296 401 1263T434 1184Q434
1135 403 1103T321 1071Q272 1071 241 1103T209 1184Z" />
<glyph unicode="&#xe5;" glyph-name="aring" horiz-adv-x="1006" d="M371 1225Q371 1164 411 1123T512 1081Q572 1081 612 1122T653 1225Q653 1285 613 1325T512 1366Q452 1366 412 1326T371 1225ZM264 1225Q264 1329 336 1401T512 1473Q616 1473 688 1401T760
1225Q760 1120 688 1049T512 977Q408 977 336 1048T264 1225ZM598 190V471L504 434Q406 396 355 344T303 231Q303 180 332 150T410 119Q456 119 503 137T598 190ZM606 112Q481 35 404 3T266 -29Q181 -29 125 24T68 160Q68 249 146 317T434 471L598 539V723Q598
781 575 810T506 840Q433 840 376 802T319 711Q319 700 324 669T330 618Q330 549 290 504T186 459Q129 459 98 489T66 575Q66 621 97 668T193 764Q288 836 388 871T596 907Q749 907 807 850T866 618V158Q866 117 875 103T907 88Q930 88 955 98T1008 131L1026 84Q963
33 898 8T768 -18Q690 -18 650 14T606 112Z" />
<glyph unicode="&#xe6;" glyph-name="ae" horiz-adv-x="1540" d="M846 574L1204 573Q1204 581 1205 595T1206 614Q1206 725 1163 786T1040 848Q949 848 899 777T846 574ZM848 504V475Q848 327 929 241T1149 154Q1234 154 1311 195T1477 330L1505 293Q1432 132
1318 50T1053 -33Q929 -33 828 15T653 156Q523 62 424 17T248 -29Q162 -29 107 24T51 160Q51 251 135 323T416 473L580 539V723Q580 783 558 811T489 840Q415 840 359 802T303 711Q303 700 307 669T311 618Q311 547 272 503T168 459Q112 459 80 490T47 575Q47 624
77 669T174 764Q272 837 371 873T575 909Q660 909 713 893T799 840Q857 875 924 892T1071 909Q1246 909 1363 797T1491 504H848ZM580 190V471L485 434Q389 396 338 344T287 231Q287 180 316 150T393 119Q439 119 485 136T580 190Z" />
<glyph unicode="&#xe7;" glyph-name="ccedilla" horiz-adv-x="997" d="M958 301Q914 145 800 56T528 -33Q332 -33 199 100T66 428Q66 632 214 770T582 909Q737 909 842 828T948 631Q948 560 912 522T809 483Q741 483 699 527T657 645Q657 673 671 715T686 774Q686
809 664 828T602 848Q491 848 426 767T360 545Q360 370 441 265T655 160Q736 160 802 199T924 317L958 301ZM250 -379L287 -289Q346 -327 406 -347T518 -367Q575 -367 603 -345T631 -276Q631 -233 603 -212T520 -190Q507 -190 491 -192T459 -196V0H524V-115Q535
-113 547 -112T586 -111Q673 -111 722 -154T772 -276Q772 -360 713 -407T547 -455Q488 -455 416 -437T250 -379Z" />
<glyph unicode="&#xe8;" glyph-name="egrave" horiz-adv-x="1042" d="M350 504V475Q350 328 431 242T651 156Q736 156 813 197T977 332L1008 295Q934 134 818 53T547 -29Q336 -29 201 103T66 442Q66 638 208 773T559 909Q745 909 862 800T991 504H350ZM348 574L707
573Q707 580 708 591T709 608Q709 721 664 784T541 848Q450 848 400 777T348 574ZM725 1022H651L350 1204Q301 1235 284 1256T266 1305Q266 1337 288 1359T342 1382Q366 1382 394 1366T449 1321L725 1022Z" />
<glyph unicode="&#xe9;" glyph-name="eacute" horiz-adv-x="1042" d="M350 504V475Q350 328 431 242T651 156Q736 156 813 197T977 332L1008 295Q934 134 818 53T547 -29Q336 -29 201 103T66 442Q66 638 208 773T559 909Q745 909 862 800T991 504H350ZM348 574L707
573Q707 580 708 591T709 608Q709 721 664 784T541 848Q450 848 400 777T348 574ZM373 1022L649 1321Q676 1350 704 1366T756 1382Q787 1382 809 1360T832 1305Q832 1278 815 1257T748 1204L447 1022H373Z" />
<glyph unicode="&#xea;" glyph-name="ecircumflex" horiz-adv-x="1042" d="M350 504V475Q350 328 431 242T651 156Q736 156 813 197T977 332L1008 295Q934 134 818 53T547 -29Q336 -29 201 103T66 442Q66 638 208 773T559 909Q745 909 862 800T991 504H350ZM348
574L707 573Q707 580 708 591T709 608Q709 721 664 784T541 848Q450 848 400 777T348 574ZM254 1022L481 1370H615L844 1022H770L549 1217L328 1022H254Z" />
<glyph unicode="&#xeb;" glyph-name="edieresis" horiz-adv-x="1042" d="M350 504V475Q350 328 431 242T651 156Q736 156 813 197T977 332L1008 295Q934 134 818 53T547 -29Q336 -29 201 103T66 442Q66 638 208 773T559 909Q745 909 862 800T991 504H350ZM348
574L707 573Q707 580 708 591T709 608Q709 721 664 784T541 848Q450 848 400 777T348 574ZM627 1184Q627 1229 661 1262T742 1296Q787 1296 819 1263T852 1184Q852 1134 821 1103T742 1071Q693 1071 660 1103T627 1184ZM244 1184Q244 1229 277 1262T356 1296Q403
1296 436 1263T469 1184Q469 1135 438 1103T356 1071Q307 1071 276 1103T244 1184Z" />
<glyph unicode="&#xec;" glyph-name="igrave" horiz-adv-x="578" d="M436 905V154Q436 105 452 86T509 64L545 61V0H41V61L75 63Q116 66 133 85T150 154V684Q149 717 143 725T115 741L41 770V813Q113 819 194 840T393 905H436ZM466 1022H392L91 1204Q42 1235 25
1256T7 1305Q7 1337 29 1359T83 1382Q107 1382 135 1366T190 1321L466 1022Z" />
<glyph unicode="&#xed;" glyph-name="iacute" horiz-adv-x="578" d="M436 905V154Q436 105 452 86T509 64L545 61V0H41V61L75 63Q116 66 133 85T150 154V684Q149 717 143 725T115 741L41 770V813Q113 819 194 840T393 905H436ZM114 1022L390 1321Q417 1350 445
1366T497 1382Q528 1382 550 1360T573 1305Q573 1278 556 1257T489 1204L188 1022H114Z" />
<glyph unicode="&#xee;" glyph-name="icircumflex" horiz-adv-x="578" d="M436 905V154Q436 105 452 86T509 64L545 61V0H41V61L75 63Q116 66 133 85T150 154V684Q149 717 143 725T115 741L41 770V813Q113 819 194 840T393 905H436ZM-5 1022L222 1370H356L585
1022H511L290 1217L69 1022H-5Z" />
<glyph unicode="&#xef;" glyph-name="idieresis" horiz-adv-x="578" d="M436 905V154Q436 105 452 86T509 64L545 61V0H41V61L75 63Q116 66 133 85T150 154V684Q149 717 143 725T115 741L41 770V813Q113 819 194 840T393 905H436ZM368 1184Q368 1229 402 1262T483
1296Q528 1296 560 1263T593 1184Q593 1134 562 1103T483 1071Q434 1071 401 1103T368 1184ZM-15 1184Q-15 1229 18 1262T97 1296Q144 1296 177 1263T210 1184Q210 1135 179 1103T97 1071Q48 1071 17 1103T-15 1184Z" />
<glyph unicode="&#xf0;" glyph-name="eth" horiz-adv-x="1053" d="M530 793Q440 793 391 696T342 418Q342 238 391 141T532 43Q623 43 672 140T721 418Q721 596 671 694T530 793ZM676 821Q652 925 618 1011T537 1167L262 995L227 1063L496 1233Q490 1240 480 1254Q387
1386 346 1440L391 1489Q444 1452 499 1408T618 1309L883 1473L924 1409L674 1251Q831 1088 913 894T995 489Q995 245 873 108T530 -29Q329 -29 199 97T68 418Q68 606 197 737T508 868Q554 868 595 857T676 821Z" />
<glyph unicode="&#xf1;" glyph-name="ntilde" horiz-adv-x="1171" d="M41 0V61L75 63Q116 66 133 85T150 154V684Q149 717 143 725T115 741L41 770V813Q113 819 194 840T393 905H428V760Q506 832 586 867T752 903Q825 903 889 877T989 807Q1015 777 1025 739T1036
625V571V154Q1036 105 1052 86T1111 63L1145 61V0H639V61L675 63Q717 66 733 85T750 154V621Q750 702 721 733T618 764Q563 764 513 742T428 678V154Q428 104 443 86T499 64L537 61V0H41ZM869 1339Q847 1227 798 1169T674 1110Q663 1110 650 1111T623 1116L516
1143Q499 1147 486 1149T463 1151Q421 1151 398 1131T361 1061H303Q327 1178 375 1235T500 1292Q516 1292 532 1290T563 1284L673 1257Q685 1254 697 1253T723 1251Q757 1251 779 1273T811 1339H869Z" />
<glyph unicode="&#xf2;" glyph-name="ograve" horiz-adv-x="1161" d="M66 440Q66 646 210 777T582 909Q808 909 952 778T1096 440Q1096 234 952 103T582 -29Q355 -29 211 102T66 440ZM582 47Q685 47 739 147T793 440Q793 629 738 731T582 834Q479 834 425 733T371
440Q371 252 426 150T582 47ZM758 1022H684L383 1204Q334 1235 317 1256T299 1305Q299 1337 321 1359T375 1382Q399 1382 427 1366T482 1321L758 1022Z" />
<glyph unicode="&#xf3;" glyph-name="oacute" horiz-adv-x="1161" d="M66 440Q66 646 210 777T582 909Q808 909 952 778T1096 440Q1096 234 952 103T582 -29Q355 -29 211 102T66 440ZM582 47Q685 47 739 147T793 440Q793 629 738 731T582 834Q479 834 425 733T371
440Q371 252 426 150T582 47ZM406 1022L682 1321Q709 1350 737 1366T789 1382Q820 1382 842 1360T865 1305Q865 1278 848 1257T781 1204L480 1022H406Z" />
<glyph unicode="&#xf4;" glyph-name="ocircumflex" horiz-adv-x="1161" d="M66 440Q66 646 210 777T582 909Q808 909 952 778T1096 440Q1096 234 952 103T582 -29Q355 -29 211 102T66 440ZM582 47Q685 47 739 147T793 440Q793 629 738 731T582 834Q479 834 425
733T371 440Q371 252 426 150T582 47ZM287 1022L514 1370H648L877 1022H803L582 1217L361 1022H287Z" />
<glyph unicode="&#xf5;" glyph-name="otilde" horiz-adv-x="1161" d="M66 440Q66 646 210 777T582 909Q808 909 952 778T1096 440Q1096 234 952 103T582 -29Q355 -29 211 102T66 440ZM582 47Q685 47 739 147T793 440Q793 629 738 731T582 834Q479 834 425 733T371
440Q371 252 426 150T582 47ZM865 1339Q843 1227 794 1169T670 1110Q659 1110 646 1111T619 1116L512 1143Q495 1147 482 1149T459 1151Q417 1151 394 1131T357 1061H299Q323 1178 371 1235T496 1292Q512 1292 528 1290T559 1284L669 1257Q681 1254 693 1253T719
1251Q753 1251 775 1273T807 1339H865Z" />
<glyph unicode="&#xf6;" glyph-name="odieresis" horiz-adv-x="1161" d="M66 440Q66 646 210 777T582 909Q808 909 952 778T1096 440Q1096 234 952 103T582 -29Q355 -29 211 102T66 440ZM582 47Q685 47 739 147T793 440Q793 629 738 731T582 834Q479 834 425 733T371
440Q371 252 426 150T582 47ZM660 1184Q660 1229 694 1262T775 1296Q820 1296 852 1263T885 1184Q885 1134 854 1103T775 1071Q726 1071 693 1103T660 1184ZM277 1184Q277 1229 310 1262T389 1296Q436 1296 469 1263T502 1184Q502 1135 471 1103T389 1071Q340 1071
309 1103T277 1184Z" />
<glyph unicode="&#xf7;" glyph-name="divide" horiz-adv-x="1706" d="M854 369Q916 369 961 324T1006 217Q1006 156 961 112T854 68Q791 68 747 111T702 217Q702 280 746 324T854 369ZM254 711H1452V512H254V711ZM854 1155Q916 1155 961 1111T1006 1004Q1006 941
962 897T854 852Q791 852 747 896T702 1004Q702 1067 746 1111T854 1155Z" />
<glyph unicode="&#xf8;" glyph-name="oslash" horiz-adv-x="1161" d="M76 12L186 125Q126 187 96 265T66 440Q66 646 210 777T582 909Q667 909 742 888T891 823L942 874H1073L965 764Q1033 694 1064 617T1096 440Q1096 234 952 103T582 -29Q489 -29 405 -4T252
70L197 12H76ZM373 309L762 694Q738 761 690 799T582 838Q476 838 421 735T365 436Q365 400 367 370T373 309ZM786 590L393 207Q419 129 468 86T582 43Q684 43 741 143T799 426Q799 468 796 508T786 590Z" />
<glyph unicode="&#xf9;" glyph-name="ugrave" horiz-adv-x="1171" d="M1024 883V199Q1024 167 1031 158T1059 141L1133 113V68Q1065 62 982 42T780 -20H748V123Q670 51 589 16T424 -20Q349 -20 285 5T184 76Q159 106 148 144T137 256V309V729Q137 777 121 795T64
817L29 819V883H416V260Q416 178 445 149T549 119Q607 119 660 142T748 205V729Q748 777 732 795T674 817L637 819V883H1024ZM747 1022H673L372 1204Q323 1235 306 1256T288 1305Q288 1337 310 1359T364 1382Q388 1382 416 1366T471 1321L747 1022Z" />
<glyph unicode="&#xfa;" glyph-name="uacute" horiz-adv-x="1171" d="M1024 883V199Q1024 167 1031 158T1059 141L1133 113V68Q1065 62 982 42T780 -20H748V123Q670 51 589 16T424 -20Q349 -20 285 5T184 76Q159 106 148 144T137 256V309V729Q137 777 121 795T64
817L29 819V883H416V260Q416 178 445 149T549 119Q607 119 660 142T748 205V729Q748 777 732 795T674 817L637 819V883H1024ZM395 1022L671 1321Q698 1350 726 1366T778 1382Q809 1382 831 1360T854 1305Q854 1278 837 1257T770 1204L469 1022H395Z" />
<glyph unicode="&#xfb;" glyph-name="ucircumflex" horiz-adv-x="1171" d="M1024 883V199Q1024 167 1031 158T1059 141L1133 113V68Q1065 62 982 42T780 -20H748V123Q670 51 589 16T424 -20Q349 -20 285 5T184 76Q159 106 148 144T137 256V309V729Q137 777 121
795T64 817L29 819V883H416V260Q416 178 445 149T549 119Q607 119 660 142T748 205V729Q748 777 732 795T674 817L637 819V883H1024ZM276 1022L503 1370H637L866 1022H792L571 1217L350 1022H276Z" />
<glyph unicode="&#xfc;" glyph-name="udieresis" horiz-adv-x="1171" d="M1024 883V199Q1024 167 1031 158T1059 141L1133 113V68Q1065 62 982 42T780 -20H748V123Q670 51 589 16T424 -20Q349 -20 285 5T184 76Q159 106 148 144T137 256V309V729Q137 777 121 795T64
817L29 819V883H416V260Q416 178 445 149T549 119Q607 119 660 142T748 205V729Q748 777 732 795T674 817L637 819V883H1024ZM649 1184Q649 1229 683 1262T764 1296Q809 1296 841 1263T874 1184Q874 1134 843 1103T764 1071Q715 1071 682 1103T649 1184ZM266 1184Q266
1229 299 1262T378 1296Q425 1296 458 1263T491 1184Q491 1135 460 1103T378 1071Q329 1071 298 1103T266 1184Z" />
<glyph unicode="&#xfd;" glyph-name="yacute" horiz-adv-x="895" d="M410 0L76 725Q54 773 17 798T-72 826V883H465V825L405 821Q384 819 372 807T360 774Q360 768 362 761T371 739L561 322L700 614Q715 644 722 671T729 727Q729 776 696 799T590 826V883H952V825Q869
812 799 665Q795 656 793 651L489 14Q390 -196 339 -254T225 -313Q167 -313 135 -280T102 -186Q102 -130 132 -96T211 -61Q236 -61 256 -70T291 -96Q299 -105 304 -129T322 -154Q327 -153 331 -148T346 -125L410 0ZM530 1022L806 1321Q833 1350 861 1366T913 1382Q944
1382 966 1360T989 1305Q989 1278 972 1257T905 1204L604 1022H530Z" />
<glyph unicode="&#xfe;" glyph-name="thorn" horiz-adv-x="1147" d="M422 245Q431 156 484 101T616 45Q698 45 741 126T784 360Q784 564 730 674T575 784Q531 784 490 766T422 715V245ZM422 18V-160Q422 -209 438 -228T496 -250L551 -252V-313H35V-252L71 -250Q112
-247 128 -228T145 -160V1268Q145 1300 138 1309T111 1325L37 1354V1397Q107 1402 193 1425T389 1489H422V799Q496 855 563 882T698 909Q869 909 971 796T1073 494Q1073 398 1045 314T958 156Q888 63 799 16T606 -31Q537 -31 493 -19T422 18Z" />
<glyph unicode="&#xff;" glyph-name="ydieresis" horiz-adv-x="895" d="M410 0L76 725Q54 773 17 798T-72 826V883H465V825L405 821Q384 819 372 807T360 774Q360 768 362 761T371 739L561 322L700 614Q715 644 722 671T729 727Q729 776 696 799T590 826V883H952V825Q869
812 799 665Q795 656 793 651L489 14Q390 -196 339 -254T225 -313Q167 -313 135 -280T102 -186Q102 -130 132 -96T211 -61Q236 -61 256 -70T291 -96Q299 -105 304 -129T322 -154Q327 -153 331 -148T346 -125L410 0ZM784 1184Q784 1229 818 1262T899 1296Q944 1296
976 1263T1009 1184Q1009 1134 978 1103T899 1071Q850 1071 817 1103T784 1184ZM401 1184Q401 1229 434 1262T513 1296Q560 1296 593 1263T626 1184Q626 1135 595 1103T513 1071Q464 1071 433 1103T401 1184Z" />
<glyph unicode="&#x106;" glyph-name="Cacute" horiz-adv-x="1526" d="M1458 -10H1411L1386 41Q1386 41 1386 42Q1372 74 1348 74Q1337 74 1289 56Q1059 -29 836 -29Q687 -29 552 22T317 168Q203 276 143 420T82 729Q82 894 142 1039T317 1292Q416 1386 551 1437T836
1489Q937 1489 1032 1470T1227 1411Q1242 1405 1268 1393Q1314 1372 1333 1372Q1350 1372 1365 1391T1397 1450H1432V977H1384Q1274 1192 1138 1307T858 1423Q672 1423 566 1239T459 729Q459 386 559 212T858 37Q1006 37 1142 146T1413 481H1458V-10ZM672 1600L948
1899Q975 1928 1003 1944T1055 1960Q1086 1960 1108 1938T1131 1883Q1131 1856 1114 1835T1047 1782L746 1600H672Z" />
<glyph unicode="&#x107;" glyph-name="cacute" horiz-adv-x="997" d="M958 301Q914 145 800 56T528 -33Q332 -33 199 100T66 428Q66 632 214 770T582 909Q737 909 842 828T948 631Q948 560 912 522T809 483Q741 483 699 527T657 645Q657 673 671 715T686 774Q686
809 664 828T602 848Q491 848 426 767T360 545Q360 370 441 265T655 160Q736 160 802 199T924 317L958 301ZM352 1022L628 1321Q655 1350 683 1366T735 1382Q766 1382 788 1360T811 1305Q811 1278 794 1257T727 1204L426 1022H352Z" />
<glyph unicode="&#x10c;" glyph-name="Ccaron" horiz-adv-x="1526" d="M1458 -10H1411L1386 41Q1386 41 1386 42Q1372 74 1348 74Q1337 74 1289 56Q1059 -29 836 -29Q687 -29 552 22T317 168Q203 276 143 420T82 729Q82 894 142 1039T317 1292Q416 1386 551 1437T836
1489Q937 1489 1032 1470T1227 1411Q1242 1405 1268 1393Q1314 1372 1333 1372Q1350 1372 1365 1391T1397 1450H1432V977H1384Q1274 1192 1138 1307T858 1423Q672 1423 566 1239T459 729Q459 386 559 212T858 37Q1006 37 1142 146T1413 481H1458V-10ZM553 1948H627L848
1754L1069 1948H1143L914 1600H780L553 1948Z" />
<glyph unicode="&#x10d;" glyph-name="ccaron" horiz-adv-x="997" d="M958 301Q914 145 800 56T528 -33Q332 -33 199 100T66 428Q66 632 214 770T582 909Q737 909 842 828T948 631Q948 560 912 522T809 483Q741 483 699 527T657 645Q657 673 671 715T686 774Q686
809 664 828T602 848Q491 848 426 767T360 545Q360 370 441 265T655 160Q736 160 802 199T924 317L958 301ZM233 1370H307L528 1176L749 1370H823L594 1022H460L233 1370Z" />
<glyph unicode="&#x111;" glyph-name="" horiz-adv-x="1147" d="M713 90Q642 28 571 -1T422 -31Q265 -31 168 86T70 393Q70 616 201 762T524 909Q570 909 616 893T713 842V1094H422V1169H713V1268Q712 1301 706 1309T676 1325L594 1354V1397Q672 1405 759 1427T956
1489H991V1169H1139V1094H991V193Q991 162 998 153T1026 135L1100 106V63Q1020 55 935 33T748 -31H719L713 90ZM713 176V641Q703 730 652 787T530 844Q442 844 397 764T352 528Q352 323 406 217T563 111Q605 111 646 129T713 176Z" />
<glyph unicode="&#x11e;" glyph-name="Gbreve" horiz-adv-x="1722" d="M1522 -10H1477L1450 41Q1440 60 1431 66T1405 72Q1388 72 1323 49Q1097 -31 899 -31Q757 -31 642 -3T432 82Q267 181 175 352T82 729Q82 894 142 1039T317 1292Q421 1389 559 1439T864 1489Q965
1489 1061 1470T1262 1411Q1277 1405 1304 1394Q1360 1370 1380 1370Q1397 1370 1412 1387T1448 1450H1479V977H1434Q1311 1197 1167 1310T866 1423Q674 1423 567 1241T459 729Q459 379 561 206T872 33Q950 33 1016 58T1120 129Q1147 159 1158 195T1169 315V485Q1169
561 1148 580T1051 602L958 604V664H1675V604L1615 602Q1563 599 1543 574T1522 471V-10ZM561 1913H626Q644 1843 699 1812T862 1780Q969 1780 1024 1811T1095 1913H1161Q1139 1776 1064 1706T862 1635Q735 1635 659 1705T561 1913Z" />
<glyph unicode="&#x11f;" glyph-name="gbreve" horiz-adv-x="934" d="M192 -31Q164 -55 150 -80T135 -131Q135 -202 207 -237T422 -272Q580 -272 670 -234T760 -131Q760 -51 434 -41Q284 -36 192 -31ZM463 399Q524 399 548 442T573 600Q573 754 550 797T463 840Q400
840 376 797T352 621Q352 487 376 443T463 399ZM350 340Q211 377 143 448T74 627Q74 750 178 826T464 909Q519 1070 578 1137T725 1204Q796 1204 834 1170T872 1073Q872 1019 842 986T762 952Q733 952 684 970T612 989Q581 989 562 967T535 901Q690 888 777 819T864
641Q864 538 807 471T629 365Q563 343 456 317Q315 284 315 248Q316 214 440 211Q444 211 446 211L581 209Q763 206 848 145T934 -43Q934 -191 802 -266T410 -342Q231 -342 137 -294T43 -156Q43 -116 64 -83T131 -18Q88 -3 66 27T43 98Q43 160 90 205T293 315L350
340ZM423 1335H488Q506 1265 561 1234T724 1202Q831 1202 886 1233T957 1335H1023Q1001 1198 926 1128T724 1057Q597 1057 521 1127T423 1335Z" />
<glyph unicode="&#x130;" glyph-name="Idot" horiz-adv-x="772" d="M739 1460V1411L696 1407Q612 1402 584 1380T555 1300V168Q555 111 583 89T697 61L739 59V0H33V59L75 61Q161 67 189 89T217 168V1300Q217 1357 189 1379T76 1407L33 1411V1460H739ZM271 1762Q271
1810 306 1846T388 1883Q435 1883 471 1847T507 1762Q507 1711 473 1678T388 1645Q337 1645 304 1678T271 1762Z" />
<glyph unicode="&#x131;" glyph-name="dotlessi" horiz-adv-x="578" d="M436 905V154Q436 105 452 86T509 64L545 61V0H41V61L75 63Q116 66 133 85T150 154V684Q149 717 143 725T115 741L41 770V813Q113 819 194 840T393 905H436Z" />
<glyph unicode="&#x141;" glyph-name="Lslash" horiz-adv-x="1405" d="M1341 0H43V59L86 61Q170 66 198 88T227 168V610L10 463V561L227 709V1300Q227 1358 201 1380T86 1407L43 1411V1460H768V1411L706 1407Q615 1403 589 1381T563 1300V893L952 1153V1055L563
795V178Q563 111 593 86T707 61H856Q1006 61 1116 129T1341 362L1395 440L1421 422L1341 0Z" />
<glyph unicode="&#x142;" glyph-name="lslash" horiz-adv-x="602" d="M446 1489V870L592 969V883L446 782V154Q446 105 463 86T521 63L555 61V0H49V61L87 64Q128 67 144 86T160 154V616L10 516V602L160 705V1268Q160 1299 153 1308T125 1325L51 1354V1397Q123
1403 204 1424T403 1489H446Z" />
<glyph unicode="&#x152;" glyph-name="OE" horiz-adv-x="2419" d="M1212 209V1229Q1212 1349 1165 1380T965 1411Q714 1411 587 1231T459 698Q459 367 575 205T928 43Q1012 43 1080 57T1184 96Q1200 107 1206 130T1212 209ZM2331 0H1339Q1236 0 1085 -11T885 -23Q732
-23 618 5T414 94Q252 201 167 363T82 727Q82 1065 299 1270T877 1475Q912 1475 1051 1468T1294 1460H2195L2322 1112L2294 1102L2214 1192Q2121 1300 2031 1353T1849 1407H1696Q1618 1407 1586 1383T1554 1300V782H1683Q1794 782 1872 865T1972 1090H2013V430H1972Q1951
564 1871 646T1683 729H1554V168Q1554 110 1586 86T1696 61H1845Q1995 61 2105 129T2331 362L2384 428L2410 422L2331 0Z" />
<glyph unicode="&#x153;" glyph-name="oe" horiz-adv-x="1767" d="M1075 504V475Q1075 327 1156 241T1376 154Q1461 154 1538 195T1704 330L1733 293Q1662 132 1548 51T1280 -31Q1178 -31 1093 0T938 92Q862 32 774 2T582 -29Q355 -29 211 102T66 440Q66 647 210
779T582 911Q681 911 773 879T946 782Q1019 847 1103 879T1286 911Q1471 911 1588 801T1718 504H1075ZM1073 574L1434 573Q1434 580 1435 591T1436 608Q1436 721 1391 784T1268 848Q1177 848 1126 777T1073 574ZM582 47Q685 47 739 147T793 440Q793 629 738 731T582
834Q479 834 425 733T371 440Q371 252 426 150T582 47Z" />
<glyph unicode="&#x15e;" glyph-name="Scedilla" horiz-adv-x="1266" d="M123 39L143 514H199Q305 280 428 159T684 37Q783 37 843 100T903 268Q903 476 538 605Q535 606 535 606Q305 687 209 787T113 1040Q113 1241 242 1364T584 1487Q704 1487 831 1435T967
1382Q982 1382 996 1394T1026 1434H1059L1069 981H1028Q960 1193 843 1310T584 1427Q488 1427 431 1375T373 1235Q373 1132 434 1070T678 946Q693 941 721 932Q985 845 1067 752Q1122 689 1151 612T1180 449Q1180 247 1031 107T666 -33Q522 -33 375 24T223 82Q208
82 193 71T162 39H123ZM367 -379L404 -289Q463 -327 523 -347T635 -367Q692 -367 720 -345T748 -276Q748 -233 720 -212T637 -190Q624 -190 608 -192T576 -196V0H641V-115Q652 -113 664 -112T703 -111Q790 -111 839 -154T889 -276Q889 -360 830 -407T664 -455Q605
-455 533 -437T367 -379Z" />
<glyph unicode="&#x15f;" glyph-name="scedilla" horiz-adv-x="782" d="M82 49V338H113Q156 197 241 114T428 31Q488 31 522 61T557 143Q557 223 397 319Q374 333 363 340Q352 345 334 354Q82 478 82 623Q82 743 174 826T401 909Q479 909 543 894T666 846L682
588H651Q600 706 525 774T371 842Q327 842 301 817T274 750Q274 678 431 606Q462 592 479 584Q626 526 688 450T750 252Q750 127 658 49T416 -29Q340 -29 257 -10T82 49ZM382 -379L419 -289Q478 -327 538 -347T650 -367Q707 -367 735 -345T763 -276Q763 -233 735
-212T652 -190Q639 -190 623 -192T591 -196V0H656V-115Q667 -113 679 -112T718 -111Q805 -111 854 -154T904 -276Q904 -360 845 -407T679 -455Q620 -455 548 -437T382 -379Z" />
<glyph unicode="&#x160;" glyph-name="Scaron" horiz-adv-x="1266" d="M123 39L143 514H199Q305 280 428 159T684 37Q783 37 843 100T903 268Q903 476 538 605Q535 606 535 606Q305 687 209 787T113 1040Q113 1241 242 1364T584 1487Q704 1487 831 1435T967 1382Q982
1382 996 1394T1026 1434H1059L1069 981H1028Q960 1193 843 1310T584 1427Q488 1427 431 1375T373 1235Q373 1132 434 1070T678 946Q693 941 721 932Q985 845 1067 752Q1122 689 1151 612T1180 449Q1180 247 1031 107T666 -33Q522 -33 375 24T223 82Q208 82 193
71T162 39H123ZM338 1948H412L633 1754L854 1948H928L699 1600H565L338 1948Z" />
<glyph unicode="&#x161;" glyph-name="scaron" horiz-adv-x="782" d="M82 49V338H113Q156 197 241 114T428 31Q488 31 522 61T557 143Q557 223 397 319Q374 333 363 340Q352 345 334 354Q82 478 82 623Q82 743 174 826T401 909Q479 909 543 894T666 846L682 588H651Q600
706 525 774T371 842Q327 842 301 817T274 750Q274 678 431 606Q462 592 479 584Q626 526 688 450T750 252Q750 127 658 49T416 -29Q340 -29 257 -10T82 49ZM353 1370H427L648 1176L869 1370H943L714 1022H580L353 1370Z" />
<glyph unicode="&#x178;" glyph-name="Ydieresis" horiz-adv-x="1268" d="M823 168Q823 110 853 88T967 61L1024 59V0H281V59L339 61Q423 65 453 87T483 168V711L55 1323Q27 1362 -4 1380T-84 1403V1460H641V1403L562 1399Q521 1397 501 1385T481 1350Q481 1341
483 1333T494 1310L803 829L1063 1212Q1079 1235 1087 1260T1096 1307Q1096 1354 1066 1377T973 1403V1460H1386V1403Q1320 1395 1274 1364T1171 1253L823 739V168ZM713 1762Q713 1807 747 1840T828 1874Q873 1874 905 1841T938 1762Q938 1712 907 1681T828 1649Q779
1649 746 1681T713 1762ZM330 1762Q330 1807 363 1840T442 1874Q489 1874 522 1841T555 1762Q555 1713 524 1681T442 1649Q393 1649 362 1681T330 1762Z" />
<glyph unicode="&#x17d;" glyph-name="Zcaron" horiz-adv-x="1372" d="M1298 1460L1323 1417L426 61H643Q800 61 925 118T1245 352L1325 424L1360 395L1206 0H43L18 43L913 1399H686Q533 1399 405 1336T106 1110L51 1057L14 1083L182 1460H1298ZM391 1948H465L686
1754L907 1948H981L752 1600H618L391 1948Z" />
<glyph unicode="&#x17e;" glyph-name="zcaron" horiz-adv-x="1004" d="M57 0V45L582 829Q574 829 560 830T539 831Q400 831 296 763T104 547H57L156 883H928V836L406 59H483Q603 59 723 146T950 399H985L903 0H57ZM464 1370H538L759 1176L980 1370H1054L825 1022H691L464
1370Z" />
<glyph unicode="&#x192;" glyph-name="florin" horiz-adv-x="1204" d="M479 739H256L264 811H485Q531 1147 651 1325T954 1503Q1064 1503 1141 1442T1219 1298Q1219 1257 1191 1230T1118 1202Q1060 1202 1031 1240T1001 1356Q1001 1412 988 1434T942 1456Q878
1456 836 1349T756 971L735 811H969L961 739H727L696 471Q649 50 528 -159T211 -369Q98 -369 20 -311T-59 -172Q-59 -128 -33 -101T37 -74Q83 -74 112 -102T152 -185Q154 -201 155 -234Q158 -323 213 -324Q292 -324 337 -197T438 406L479 739Z" />
<glyph unicode="&#x2c6;" glyph-name="circumflex" horiz-adv-x="1024" d="M217 1022L444 1370H578L807 1022H733L512 1217L291 1022H217Z" />
<glyph unicode="&#x2c7;" glyph-name="caron" horiz-adv-x="1024" d="M217 1370H291L512 1176L733 1370H807L578 1022H444L217 1370Z" />
<glyph unicode="&#x2d8;" glyph-name="breve" horiz-adv-x="1024" d="M211 1335H276Q294 1265 349 1234T512 1202Q619 1202 674 1233T745 1335H811Q789 1198 714 1128T512 1057Q385 1057 309 1127T211 1335Z" />
<glyph unicode="&#x2d9;" glyph-name="dotaccent" horiz-adv-x="1024" d="M395 1184Q395 1232 430 1268T512 1305Q559 1305 595 1269T631 1184Q631 1133 597 1100T512 1067Q461 1067 428 1100T395 1184Z" />
<glyph unicode="&#x2da;" glyph-name="ring" horiz-adv-x="1024" d="M371 1249Q371 1189 411 1149T512 1108Q572 1108 612 1148T653 1249Q653 1310 613 1351T512 1393Q452 1393 412 1352T371 1249ZM264 1249Q264 1354 336 1425T512 1497Q616 1497 688 1426T760
1249Q760 1145 688 1073T512 1001Q408 1001 336 1073T264 1249Z" />
<glyph unicode="&#x2db;" glyph-name="ogonek" horiz-adv-x="1024" d="M655 35Q571 -31 525 -97T479 -221Q479 -280 503 -313T571 -346Q608 -346 637 -329T694 -274L725 -291Q689 -366 631 -407T504 -449Q432 -449 389 -407T346 -295Q346 -212 410 -131T608 35H655Z" />
<glyph unicode="&#x2dc;" glyph-name="tilde" horiz-adv-x="1024" d="M795 1339Q773 1227 724 1169T600 1110Q589 1110 576 1111T549 1116L442 1143Q425 1147 412 1149T389 1151Q347 1151 324 1131T287 1061H229Q253 1178 301 1235T426 1292Q442 1292 458 1290T489
1284L599 1257Q611 1254 623 1253T649 1251Q683 1251 705 1273T737 1339H795Z" />
<glyph unicode="&#x2dd;" glyph-name="hungarumlaut" horiz-adv-x="1024" d="M567 1022L741 1305Q765 1344 788 1362T840 1380Q871 1380 891 1359T911 1305Q911 1284 896 1262T848 1210L627 1022H567ZM322 1022L455 1296Q475 1340 498 1361T551 1382Q579 1382
601 1360T623 1309Q623 1290 612 1271T567 1217L383 1022H322Z" />
<glyph unicode="&#x3a9;" glyph-name="Omega" horiz-adv-x="1569" d="M1133 258V244H1423L1466 389H1544L1427 0H897Q995 217 1044 431T1094 854Q1094 1133 1018 1271T786 1409Q631 1409 554 1271T477 854Q477 646 527 432T676 0H143L27 389H102L147 244H436V258Q272
346 183 497T94 840Q94 1125 290 1311T786 1497Q1086 1497 1281 1311T1477 840Q1477 649 1388 499T1133 258Z" />
<glyph unicode="&#x3c0;" glyph-name="pi" horiz-adv-x="1477" d="M1444 885L1384 610H1036Q1032 546 1030 493T1028 412Q1028 365 1032 289T1036 182Q1036 66 998 12T877 -43Q825 -43 796 -11T766 78Q766 151 839 323T940 610H565Q561 542 559 489T557 412Q557
364 560 288T563 182Q563 66 525 12T403 -43Q353 -43 324 -11T295 78Q295 152 367 324T467 610H311Q193 610 144 578T78 461H14Q59 699 152 792T436 885H1444Z" />
<glyph unicode="&#x2013;" glyph-name="endash" horiz-adv-x="1024" d="M0 322V561H1024V322H0Z" />
<glyph unicode="&#x2014;" glyph-name="emdash" horiz-adv-x="2048" d="M0 322V561H2048V322H0Z" />
<glyph unicode="&#x2018;" glyph-name="quoteleft" horiz-adv-x="649" d="M502 1436H492Q395 1436 338 1388T281 1260V1255Q301 1261 319 1264T350 1268Q426 1268 479 1213T532 1079Q532 999 475 945T332 891Q241 891 182 960T123 1139Q123 1293 224 1391T487
1489H502V1436Z" />
<glyph unicode="&#x2019;" glyph-name="quoteright" horiz-adv-x="649" d="M160 942H172Q267 942 322 990T378 1122Q360 1117 344 1115T313 1112Q234 1112 182 1165T129 1300Q129 1380 185 1434T324 1489Q420 1489 477 1417T535 1225Q535 1074 435 983T170 891H160V942Z" />
<glyph unicode="&#x201a;" glyph-name="quotesinglbase" horiz-adv-x="649" d="M158 -199H170Q265 -199 320 -151T377 -19Q357 -24 341 -26T309 -29Q231 -29 179 24T127 158Q127 238 183 292T322 346Q418 346 476 275T535 84Q535 -67 434 -159T168 -252H158V-199Z" />
<glyph unicode="&#x201c;" glyph-name="quotedblleft" horiz-adv-x="1159" d="M1012 1436H1001Q905 1436 848 1388T791 1260V1255Q811 1261 829 1264T860 1268Q936 1268 989 1213T1042 1079Q1042 999 985 945T842 891Q750 891 691 961T631 1139Q631 1293 733 1391T997
1489H1012V1436ZM502 1436H492Q395 1436 338 1388T281 1260V1255Q301 1261 319 1264T350 1268Q426 1268 479 1213T532 1079Q532 999 475 945T332 891Q241 891 182 960T123 1139Q123 1293 224 1391T487 1489H502V1436Z" />
<glyph unicode="&#x201d;" glyph-name="quotedblright" horiz-adv-x="1159" d="M670 942H682Q778 942 833 990T890 1122Q872 1117 856 1115T825 1112Q745 1112 692 1165T639 1300Q639 1380 695 1434T834 1489Q930 1489 988 1417T1047 1225Q1047 1074 947 983T680
891H670V942ZM160 942H172Q267 942 322 990T378 1122Q360 1117 344 1115T313 1112Q234 1112 182 1165T129 1300Q129 1380 185 1434T324 1489Q420 1489 477 1417T535 1225Q535 1074 435 983T170 891H160V942Z" />
<glyph unicode="&#x201e;" glyph-name="quotedblbase" horiz-adv-x="1159" d="M670 -199H682Q778 -199 833 -151T891 -19Q871 -24 855 -26T823 -29Q745 -29 692 24T639 158Q639 238 695 292T834 346Q930 346 988 275T1047 84Q1047 -67 946 -159T680 -252H670V-199ZM160
-199H172Q267 -199 322 -151T379 -19Q359 -24 343 -26T311 -29Q233 -29 181 24T129 158Q129 238 185 292T324 346Q420 346 477 275T535 84Q535 -67 435 -159T170 -252H160V-199Z" />
<glyph unicode="&#x2020;" glyph-name="dagger" horiz-adv-x="1073" d="M565 883Q630 886 723 940T856 995Q908 995 954 966T1059 864Q1001 792 955 764T854 735Q813 735 721 790T566 848Q567 554 632 260T698 -45Q698 -82 689 -114T662 -172Q642 -201 611 -232T537
-297Q448 -232 412 -174T375 -45Q375 -34 440 259T508 847Q442 844 351 790T219 735Q166 735 120 764T14 866Q73 938 119 966T219 995Q260 995 352 942T508 885Q508 887 509 891Q512 918 512 930Q512 964 503 996T471 1069Q467 1077 457 1095Q399 1202 399 1260Q399
1316 431 1370T537 1489Q612 1424 643 1370T674 1253Q674 1203 624 1111Q603 1071 594 1051Q577 1010 570 979T563 915Q563 911 564 900T565 883Z" />
<glyph unicode="&#x2021;" glyph-name="daggerdbl" horiz-adv-x="1073" d="M553 237Q553 170 608 69T664 -82Q664 -133 634 -182T537 -291Q469 -232 440 -183T410 -82Q410 -33 465 68T520 237Q457 234 366 186T233 137Q181 137 136 163T35 254Q92 320 137 346T233
373Q273 373 365 324T520 272Q520 338 465 442T410 600Q410 655 465 757T520 926Q458 924 366 875T233 825Q182 825 137 852T35 944Q90 1008 135 1034T233 1061Q274 1061 366 1012T520 961Q520 1028 465 1129T410 1280Q410 1331 439 1380T537 1489Q604 1430 634
1381T664 1280Q664 1231 609 1130T553 961Q615 964 707 1012T840 1061Q892 1061 937 1035T1038 944Q981 879 936 852T840 825Q800 825 708 874T553 926Q553 860 608 758T664 600Q664 546 609 442T553 272Q616 275 708 324T840 373Q891 373 936 347T1038 254Q983
190 938 164T840 137Q799 137 708 185T553 237Z" />
<glyph unicode="&#x2022;" glyph-name="bullet" horiz-adv-x="1208" d="M307 762Q307 885 394 971T604 1057Q726 1057 812 971T899 762Q899 640 812 553T602 465Q479 465 393 552T307 762Z" />
<glyph unicode="&#x2026;" glyph-name="ellipsis" horiz-adv-x="2048" d="M530 160Q530 81 475 26T342 -29Q264 -29 209 26T154 160Q154 237 209 292T342 348Q419 348 474 293T530 160ZM1212 160Q1212 81 1157 26T1024 -29Q946 -29 891 26T836 160Q836 237 891
292T1024 348Q1101 348 1156 293T1212 160ZM1896 160Q1896 81 1841 26T1708 -29Q1630 -29 1575 26T1520 160Q1520 237 1575 292T1708 348Q1785 348 1840 293T1896 160Z" />
<glyph unicode="&#x2030;" glyph-name="perthousand" horiz-adv-x="2175" d="M1817 45Q1880 45 1906 115T1933 358Q1933 531 1907 601T1817 672Q1754 672 1727 602T1700 358Q1700 186 1727 116T1817 45ZM2118 360Q2118 186 2032 72T1817 -43Q1688 -43 1601 71T1513
360Q1513 534 1600 648T1817 762Q1945 762 2031 648T2118 360ZM1112 45Q1175 45 1202 115T1229 358Q1229 531 1202 601T1112 672Q1049 672 1022 602T995 358Q995 186 1022 116T1112 45ZM1415 360Q1415 186 1328 72T1112 -43Q984 -43 898 71T811 360Q811 534 897
648T1112 762Q1241 762 1328 648T1415 360ZM365 786Q427 786 453 855T479 1100Q479 1274 453 1343T365 1413Q302 1413 275 1343T248 1100Q248 928 275 857T365 786ZM666 1100Q666 925 580 812T365 698Q236 698 149 812T61 1100Q61 1274 148 1388T365 1503Q493 1503
579 1389T666 1100ZM86 -43L1247 1503H1391L227 -43H86Z" />
<glyph unicode="&#x2039;" glyph-name="guilsinglleft" horiz-adv-x="639" d="M102 440L414 729Q448 761 469 774T508 788Q529 788 539 777T549 741Q549 732 544 720T528 692L358 440L528 188Q539 174 544 162T549 139Q549 115 539 104T508 92Q491 92 470 105T414
152L102 440Z" />
<glyph unicode="&#x203a;" glyph-name="guilsinglright" horiz-adv-x="639" d="M537 440L225 152Q191 119 170 106T131 92Q110 92 100 103T90 139Q90 149 95 161T111 188L281 440L111 692Q100 707 95 719T90 741Q90 766 100 777T131 788Q148 788 169 775T225 729L537
440Z" />
<glyph unicode="&#x20a3;" glyph-name="franc" horiz-adv-x="2134" d="M750 0H33V59L75 61Q161 67 189 89T217 168V1300Q217 1358 191 1379T76 1407L33 1411V1460H1196L1323 1112L1294 1102L1210 1192Q1112 1299 1014 1353T819 1407H696Q619 1407 587 1383T555
1300V782H684Q795 782 873 865T973 1090H1014V422H973Q952 561 873 645T684 729H555V168Q555 110 583 88T697 61L750 59V0ZM1319 0V61L1353 63Q1394 66 1411 85T1428 154V684Q1427 717 1421 725T1393 741L1319 770V813Q1391 819 1472 840T1671 905H1706V715Q1785
812 1842 849T1960 887Q2031 887 2072 845T2114 729Q2114 663 2077 625T1978 586Q1918 586 1862 637T1790 688Q1750 688 1728 654T1706 557V154Q1706 104 1722 85T1778 63L1845 61V0H1319Z" />
<glyph unicode="&#x2122;" glyph-name="trademark" horiz-adv-x="1683" d="M758 1454H969L1100 1085L1229 1454H1427V1427L1400 1423Q1381 1420 1373 1408T1364 1372V993Q1364 969 1373 957T1401 942L1427 938V905H1174V938L1204 942Q1222 945 1231 958T1241 993V1358L1085
903H1049L883 1366V993Q883 971 892 958T920 942L954 938V905H758V938L792 942Q811 945 820 958T829 993V1366Q829 1389 820 1401T793 1417L758 1421V1454ZM238 1454H688L700 1262H668Q660 1341 629 1377T537 1413H530V993Q531 970 539 958T565 942L596 938V905H330V938L360
942Q377 945 386 958T395 993V1413H385Q326 1413 296 1377T258 1262H225L238 1454Z" />
<glyph unicode="&#x2202;" glyph-name="partialdiff" horiz-adv-x="1094" d="M762 662Q781 761 791 850T801 1006Q801 1106 775 1163T705 1221Q661 1221 559 1148T399 1075Q357 1075 328 1105T299 1178Q299 1242 385 1296T596 1350Q788 1350 905 1189T1022 756Q1022
417 866 196T469 -25Q298 -25 187 89T76 381Q76 579 192 710T479 842Q581 842 649 799T762 662ZM700 518Q700 634 662 696T551 758Q450 758 384 624T317 283Q317 166 355 106T467 45Q568 45 634 178T700 518Z" />
<glyph unicode="&#x2206;" glyph-name="increment" horiz-adv-x="1350" d="M547 1116L166 289H930L547 1116ZM647 1497H715L1407 0H-53L647 1497Z" />
<glyph unicode="&#x220f;" glyph-name="product" horiz-adv-x="1724" d="M47 1473H1671V1389H1481V-309H1671V-393H973V-309H1151V1389H569V-309H745V-393H47V-309H238V1389H47V1473Z" />
<glyph unicode="&#x2211;" glyph-name="summation" horiz-adv-x="1542" d="M25 1473H1260L1399 1044H1311L1219 1294Q1200 1346 1159 1367T991 1389H434L1100 606V565L365 -115H1251Q1299 -115 1316 -102T1343 -51L1415 178H1503L1329 -393H20V-322L842 434L25
1407V1473Z" />
<glyph unicode="&#x2212;" glyph-name="minus" horiz-adv-x="1706" d="M254 713H1452V510H254V713Z" />
<glyph unicode="&#x2215;" glyph-name="fraction" horiz-adv-x="342" d="M-340 -43L551 1503H682L-209 -43H-340Z" />
<glyph unicode="&#x2219;" glyph-name="middot" horiz-adv-x="602" d="M469 743Q469 680 418 629T301 578Q236 578 186 628T135 743Q135 809 185 860T301 911Q366 911 417 860T469 743Z" />
<glyph unicode="&#x221a;" glyph-name="radical" horiz-adv-x="1346" d="M1141 1694H1348V1565H1245L653 -41H553L242 817L102 766L72 879L403 995L639 334L1141 1694Z" />
<glyph unicode="&#x221e;" glyph-name="infinity" horiz-adv-x="1706" d="M942 561Q987 486 1048 448T1188 410Q1282 410 1340 465T1399 610Q1399 696 1345 752T1210 809Q1136 809 1074 752T942 561ZM766 659Q720 735 659 772T520 809Q427 809 368 753T309 608Q309
523 363 467T498 410Q573 410 636 468T766 659ZM858 457Q789 324 711 262T537 199Q398 199 302 316T205 610Q205 794 290 907T514 1020Q607 1020 683 962T848 762Q916 894 996 958T1171 1022Q1310 1022 1406 904T1503 610Q1503 427 1417 314T1194 201Q1101 201
1026 257T858 457Z" />
<glyph unicode="&#x222b;" glyph-name="integral'" horiz-adv-x="1186" d="M342 -252Q444 -252 463 387Q466 523 469 598Q485 1106 592 1330T920 1554Q1018 1554 1077 1505T1137 1376Q1137 1316 1099 1280T999 1243Q953 1243 922 1267T881 1335Q876 1355 874 1389Q871
1435 844 1436Q745 1436 725 803Q721 687 719 625Q708 329 688 181T629 -70Q573 -218 481 -295T266 -373Q170 -373 110 -324T49 -197Q49 -135 88 -98T193 -61Q243 -61 278 -92T313 -164Q313 -222 319 -237T342 -252Z" />
<glyph unicode="&#x2248;" glyph-name="approxequal" horiz-adv-x="1706" d="M1530 596V377Q1424 305 1332 272T1151 238Q1056 238 865 304T563 371Q479 371 389 334T178 213V432Q289 505 384 540T565 575Q689 575 880 510T1155 444Q1241 444 1329 479T1530 596ZM1530
1008V788Q1424 717 1334 684T1153 651Q1059 651 867 716T563 782Q481 782 393 747T178 625V844Q285 915 382 951T565 987Q690 987 881 922T1155 856Q1239 856 1326 891T1530 1008Z" />
<glyph unicode="&#x2260;" glyph-name="notequal" horiz-adv-x="1706" d="M1198 1233L1346 1114L1192 922H1452V731H1063L872 492H1452V299H745L500 -10L352 109L506 299H254V492H631L821 731H254V922H950L1198 1233Z" />
<glyph unicode="&#x2264;" glyph-name="lessequal" horiz-adv-x="1706" d="M258 195H1450V-2H258V195ZM1448 1241V1032L614 768L1448 506V297L258 682V856L1448 1241Z" />
<glyph unicode="&#x2265;" glyph-name="greaterequal" horiz-adv-x="1706" d="M258 195H1450V-2H258V195ZM260 1241L1448 856V682L260 297V506L1092 768L260 1032V1241Z" />
<glyph unicode="&#x25ca;" glyph-name="lozenge" horiz-adv-x="1012" d="M506 1409L121 592L506 -233L891 592L506 1409ZM506 1653L1006 592L506 -477L6 592L506 1653Z" />
<glyph unicode="&#xf000;" glyph-name="" horiz-adv-x="1618" d="M836 1216Q835 1222 835 1230T834 1253Q834 1377 929 1482T1165 1614Q1166 1604 1166 1591T1167 1552Q1167 1421 1064 1318T860 1214H852Q849 1214 845 1215T836 1216ZM1505 403Q1391 156 1300
61T1096 -35Q1046 -35 965 -2T842 31Q797 31 711 -2T584 -35Q520 -35 456 9T326 141Q224 281 169 436T113 737Q113 956 238 1093T561 1231Q629 1231 716 1197T840 1163Q874 1163 961 1198T1114 1233Q1224 1233 1312 1193T1473 1069Q1371 1004 1322 924T1272 741Q1272
628 1332 541T1505 403Z" />
<glyph unicode="&#xf001;" glyph-name="fi" horiz-adv-x="1186" d="M39 0V61L77 63Q119 67 135 87T152 154V786H27L63 883H152Q173 1148 331 1318T711 1489Q843 1489 927 1433T1012 1292Q1012 1233 976 1197T881 1161Q816 1161 773 1202T729 1307Q729 1314 731
1334T733 1366Q733 1390 709 1405T645 1421Q537 1421 486 1346T434 1114V883H651Q791 883 873 889T1001 909H1044V154Q1044 105 1061 86T1119 63L1155 61V0H649V61L685 64Q726 67 742 86T758 154V733Q758 763 750 774T723 786H434V154Q434 106 451 86T507 64L559
61V0H39Z" />
<glyph unicode="&#xf002;" glyph-name="fl" horiz-adv-x="1190" d="M434 883H758V1204H743Q702 1204 676 1222T627 1286Q618 1304 610 1338Q594 1403 541 1403Q482 1403 458 1342T434 1114V883ZM39 0V61L77 63Q119 67 135 87T152 154V786H27L63 883H151Q153 993
196 1101T326 1315Q396 1402 481 1446T662 1491Q718 1491 759 1476T825 1432Q875 1443 919 1457T1001 1489H1044V154Q1044 105 1061 86T1119 63L1155 61V0H649V61L685 64Q726 67 742 86T758 154V786H434V154Q434 106 451 86T507 64L559 61V0H39Z" />
</font>
</defs>
</svg>
